<svg viewBox="0 0 20 21" fill="none" xmlns="http://www.w3.org/2000/svg"><g clip-path="url(#clip0_485_7087)"><path d="M19.948 8.527a1.062 1.062 0 0 0-.915-.73l-5.773-.524-2.282-5.342a1.063 1.063 0 0 0-1.955 0L6.74 7.273l-5.774.524a1.065 1.065 0 0 0-.605 1.86l4.365 3.827-1.287 5.668A1.063 1.063 0 0 0 5.022 20.3L10 17.324l4.977 2.977a1.062 1.062 0 0 0 1.583-1.15l-1.287-5.667 4.365-3.827c.32-.28.441-.724.31-1.13z" fill="#19BB81"/></g><defs><clipPath id="clip0_485_7087"><path fill="#fff" transform="translate(0 .886)" d="M0 0H20V20H0z"/></clipPath></defs></svg>