<svg viewBox="0 0 360 220" fill="none" xmlns="http://www.w3.org/2000/svg"><path fill-rule="evenodd" clip-rule="evenodd" d="M161.685 41H22.315C16.066 41 11 46.066 11 52.315v117.37C11 175.934 16.066 181 22.315 181h139.37c6.249 0 11.315-5.066 11.315-11.315V52.315C173 46.066 167.934 41 161.685 41zm-139.37-4C13.857 37 7 43.857 7 52.315v117.37C7 178.143 13.857 185 22.315 185h139.37c8.458 0 15.315-6.857 15.315-15.315V52.315C177 43.857 170.143 37 161.685 37H22.315z" fill="#fff"/><path d="M222.551 137.749a1.88 1.88 0 0 0 2.397 1.145 1.877 1.877 0 0 0 1.145-2.396 5.94 5.94 0 0 1 5.595-7.91 5.89 5.89 0 0 1 2.205.436 1.878 1.878 0 0 0 2.513-1.252c.699-2.586 3.042-4.391 5.697-4.391a4.487 4.487 0 0 0 4.481-4.482v-18.81a1.878 1.878 0 1 0-3.756 0v18.81c0 .4-.325.726-.725.726-3.702 0-7.031 2.135-8.643 5.374a9.496 9.496 0 0 0-1.772-.167c-5.342 0-9.688 4.346-9.688 9.688 0 1.107.186 2.193.551 3.229zm52.501 1.146a1.876 1.876 0 0 0 2.396-1.146 9.667 9.667 0 0 0 .552-3.229c0-2.588-1.046-5.028-2.945-6.87a9.887 9.887 0 0 0-6.917-2.818c-.595 0-1.187.056-1.772.167-1.612-3.238-4.941-5.374-8.642-5.374a.727.727 0 0 1-.726-.726v-18.81a1.878 1.878 0 1 0-3.756 0v18.81a4.487 4.487 0 0 0 4.482 4.482c2.654 0 4.997 1.805 5.696 4.391a1.878 1.878 0 0 0 2.513 1.252 5.89 5.89 0 0 1 2.205-.436c3.31 0 6.106 2.716 6.106 5.932 0 .68-.114 1.345-.337 1.978a1.878 1.878 0 0 0 1.145 2.397z" fill="#fff"/><path fill-rule="evenodd" clip-rule="evenodd" d="M261.02 69.007c.268 1.046.492 2.103.67 3.168l.434 3.757c.053.809.082 1.62.082 2.435a46.38 46.38 0 0 1-1.349 11.206 1.87 1.87 0 0 1-.365 1.383 49.068 49.068 0 0 1-.962 3.048l4.733 4.76a1.878 1.878 0 0 1-2.664 2.649l-3.556-3.578-.261.623c-.373.89-.695 1.658-.876 2.213a1.878 1.878 0 0 1-1.786 1.296h-10.436a1.88 1.88 0 0 1-1.848-1.542 42.484 42.484 0 0 0-.761-1.888l-.004-.01-.276-.66-3.575 3.554a1.875 1.875 0 0 1-2.656-.008 1.877 1.877 0 0 1 .008-2.656l4.74-4.71c-1.368-3.896-2.691-9.096-2.691-15.68 0-.815.029-1.627.081-2.436l.431-3.756c1.241-7.485 4.719-14.51 10.098-20.236l.054-.057c.061-.064.109-.115.143-.154a1.88 1.88 0 0 1 2.975.006c.035.04.085.094.148.16l.056.06c4.359 4.676 7.468 10.185 9.148 16.079.168.28.265.61.265.96v.014zm-3.413 1.865h-15.395a34.093 34.093 0 0 0-.835 7.495c0 3.632.444 6.822 1.075 9.577h14.925a42.72 42.72 0 0 0 1.072-9.577 33.85 33.85 0 0 0-.842-7.495zM256.339 91.7h-12.85c.215.665.435 1.295.654 1.89.098.174.167.36.206.55.421 1.11.83 2.088 1.186 2.934l.022.053c.164.392.315.75.449 1.083h7.812c.148-.364.31-.751.483-1.164l.017-.04c.589-1.406 1.33-3.172 2.021-5.306zm.186-24.585c-1.443-4.117-3.675-7.991-6.617-11.425a35.374 35.374 0 0 0-6.62 11.425h13.237z" fill="#F79824"/><path d="M20 72h143" stroke="#19BB81" stroke-width="4" stroke-linecap="round"/><path fill-rule="evenodd" clip-rule="evenodd" d="M31.785 27.957a2.2 2.2 0 0 1-1.741-2.589l2.176.432c-2.176-.432-2.176-.433-2.176-.434v-.002l.002-.006.002-.012.007-.032a5.56 5.56 0 0 1 .097-.384c.066-.237.166-.56.31-.939a11.78 11.78 0 0 1 1.522-2.792C33.546 19.089 36.275 17 40.655 17c2.157 0 3.804.512 5.135 1.418 1.18.804 1.988 1.85 2.575 2.612l.1.131c.652.842 1.097 1.374 1.7 1.76.546.35 1.386.679 2.921.679h59.694a2.21 2.21 0 0 1 2.22 2.2 2.21 2.21 0 0 1-2.22 2.2H53.086c-2.238 0-3.95-.497-5.334-1.385-1.314-.843-2.17-1.95-2.793-2.755l-.016-.022c-.682-.88-1.1-1.407-1.667-1.794-.486-.33-1.226-.644-2.62-.644-2.724 0-4.212 1.211-5.092 2.4a7.395 7.395 0 0 0-1.133 2.302 3.492 3.492 0 0 0-.033.128l-.004.016a2.22 2.22 0 0 1-2.61 1.71zm89 0a2.2 2.2 0 0 1-1.741-2.589l2.176.432c-2.176-.432-2.176-.434-2.176-.434v-.002l.002-.006.002-.012.007-.032.021-.093a10.694 10.694 0 0 1 .387-1.23c.287-.754.763-1.767 1.521-2.792 1.562-2.11 4.291-4.199 8.671-4.199 2.157 0 3.804.512 5.135 1.418 1.181.804 1.987 1.85 2.574 2.612l.102.131c.651.842 1.096 1.374 1.699 1.76.545.35 1.385.679 2.921.679h15.694a2.21 2.21 0 0 1 2.22 2.2 2.21 2.21 0 0 1-2.22 2.2h-15.694c-2.238 0-3.95-.497-5.334-1.385-1.314-.843-2.169-1.95-2.793-2.755l-.016-.022c-.682-.88-1.099-1.407-1.667-1.794-.486-.33-1.226-.644-2.621-.644-2.723 0-4.211 1.211-5.091 2.4a7.405 7.405 0 0 0-1.133 2.302 2.912 2.912 0 0 0-.033.128l-.004.016a2.22 2.22 0 0 1-2.609 1.71z" fill="#F79824"/><path d="M81.57 92.461a3.2 3.2 0 0 0 .937-2.262h-.001a3.2 3.2 0 0 0-3.2-3.199h-10.42a3.2 3.2 0 0 0 0 6.398h10.422c.849 0 1.662-.337 2.262-.937zm35.688 0a3.2 3.2 0 0 0 .937-2.262h-.002A3.2 3.2 0 0 0 114.994 87h-10.42a3.2 3.2 0 0 0 0 6.398h10.421a3.2 3.2 0 0 0 2.263-.937zm35.689 0a3.2 3.2 0 0 0 .937-2.262h-.003A3.2 3.2 0 0 0 150.682 87h-10.42a3.2 3.2 0 0 0 0 6.398h10.422a3.2 3.2 0 0 0 2.263-.937zM45.881 115.905a3.198 3.198 0 0 0-2.262-5.461H33.2a3.2 3.2 0 1 0 0 6.398h10.42a3.2 3.2 0 0 0 2.262-.937zm35.69 0c.6-.6.936-1.413.936-2.262h-.001a3.2 3.2 0 0 0-3.2-3.199h-10.42a3.199 3.199 0 1 0 0 6.398h10.422c.849 0 1.662-.337 2.262-.937zm35.687 0c.6-.6.937-1.413.937-2.262h-.002a3.2 3.2 0 0 0-3.199-3.199h-10.42a3.2 3.2 0 0 0 0 6.398h10.421a3.2 3.2 0 0 0 2.263-.937zm35.689 0c.6-.6.937-1.413.937-2.262h-.003a3.2 3.2 0 0 0-3.199-3.199h-10.42a3.2 3.2 0 0 0 0 6.398h10.422a3.2 3.2 0 0 0 2.263-.937zM45.881 139.35a3.2 3.2 0 0 0-2.262-5.462H33.2a3.203 3.203 0 0 0-3.199 3.2 3.2 3.2 0 0 0 3.2 3.199h10.42a3.2 3.2 0 0 0 2.261-.937zm35.69 0a3.2 3.2 0 0 0 .936-2.262h-.001a3.2 3.2 0 0 0-3.2-3.2h-10.42a3.203 3.203 0 0 0-3.198 3.2 3.2 3.2 0 0 0 3.199 3.199h10.421c.849 0 1.662-.337 2.262-.937zm71.376 0a3.2 3.2 0 0 0 .937-2.262h-.003a3.2 3.2 0 0 0-3.199-3.2h-10.42a3.2 3.2 0 0 0 0 6.399h10.422a3.2 3.2 0 0 0 2.263-.937zM45.881 162.794a3.2 3.2 0 0 0-2.262-5.461H33.2a3.2 3.2 0 1 0 0 6.398h10.42a3.2 3.2 0 0 0 2.262-.937zm35.69 0a3.2 3.2 0 0 0 .936-2.262h-.001a3.198 3.198 0 0 0-3.2-3.199h-10.42a3.199 3.199 0 1 0 0 6.398h10.422c.849 0 1.662-.337 2.262-.937zm35.687 0a3.2 3.2 0 0 0 .937-2.262h-.002a3.198 3.198 0 0 0-3.199-3.199h-10.42a3.2 3.2 0 0 0 0 6.398h10.421a3.2 3.2 0 0 0 2.263-.937zm35.689 0a3.2 3.2 0 0 0 .937-2.262h-.003a3.198 3.198 0 0 0-3.199-3.199h-10.42a3.2 3.2 0 0 0 0 6.398h10.422a3.2 3.2 0 0 0 2.263-.937z" fill="#fff"/><path d="M103.747 131.211a2.605 2.605 0 0 1 1.73-.769 2.232 2.232 0 0 1 1.677.641l2.846 2.846 2.825-2.825a2.237 2.237 0 0 1 1.677-.642 2.6 2.6 0 0 1 1.73.77c.469.469.746 1.091.77 1.73a2.234 2.234 0 0 1-.641 1.677l-2.825 2.825 2.36 2.361c.435.435.666 1.038.642 1.677a2.602 2.602 0 0 1-.77 1.73 2.602 2.602 0 0 1-1.73.77 2.24 2.24 0 0 1-1.677-.641L110 141l-2.381 2.381a2.237 2.237 0 0 1-1.677.642 2.6 2.6 0 0 1-1.73-.77 2.602 2.602 0 0 1-.77-1.73 2.236 2.236 0 0 1 .641-1.677l2.382-2.382-2.846-2.846a2.234 2.234 0 0 1-.642-1.676 2.604 2.604 0 0 1 .77-1.731z" fill="#FFA0AC"/><circle cx="196" cy="169" r="38" fill="#060921"/><path d="M255.795 184.553l-.004-.005-.013-.019-.004-.006-.001-.001v-.001l.022.032zm0 0l1.098 1.625m-1.098-1.625l1.098 1.625m0 0l.056-.038m-.056.038l.056-.038m0 0c.311.411.681.889 1.109 1.423l1.561-1.25-1.561 1.25a80.682 80.682 0 0 0 6.217 6.889c5.31 5.243 13.124 11.499 22.766 14.805 23.543 8.072 46.499-1.828 56.461-21.199 5.113-9.943 5.6-22.07 2.158-32.807-3.453-10.774-10.997-20.546-22.4-25.393-10.766-4.575-21.53-5.75-31.928-3.174-10.367 2.568-19.981 8.768-28.657 18.284-7.327 8.036-12.804 15.746-17.93 22.963l-.021.03-1.327 1.866c-5.551 7.797-10.847 14.999-18.025 21.938-13.491 13.041-34.224 14.846-49.507 5.406-7.173-4.43-12.157-12.792-13.824-22.148-1.667-9.349.108-18.956 5.483-25.725 6.219-7.83 13.037-12.09 19.975-13.878 6.98-1.8 14.454-1.192 22.078 1.349 5.863 1.954 11.572 5.701 16.334 9.748 4.771 4.053 8.291 8.148 9.845 10.479a4.499 4.499 0 0 0 6.24 1.248 4.499 4.499 0 0 0 1.248-6.24c-2.112-3.169-6.242-7.874-11.505-12.346-5.271-4.478-11.979-8.982-19.316-11.427-8.876-2.959-18.151-3.852-27.171-1.526-9.063 2.336-17.494 7.827-24.776 16.996-7.331 9.233-9.306 21.626-7.296 32.901 2.009 11.268 8.127 22.156 17.955 28.227 18.716 11.559 43.984 9.365 60.493-6.594 7.822-7.561 13.526-15.358 19.1-23.187l1.315-1.85c5.156-7.257 10.344-14.556 17.282-22.166 7.762-8.513 15.898-13.563 24.171-15.612 8.244-2.042 17.01-1.203 26.244 2.721 8.598 3.655 14.554 11.133 17.35 19.857 2.808 8.763 2.295 18.386-1.592 25.944-7.851 15.266-26.083 23.472-45.538 16.801-7.859-2.694-14.545-7.939-19.36-12.695a71.421 71.421 0 0 1-5.517-6.111 53.113 53.113 0 0 1-1.423-1.852l-1.614 1.181 1.614-1.181a26.827 26.827 0 0 1-.344-.48c-.037-.051-.062-.088-.077-.11l-.012-.016-.003-.005v-.001a4.5 4.5 0 0 0-7.452 5.047l1.177 1.62z" fill="#F79824" stroke="#060921" stroke-width="4" stroke-linecap="round"/><path d="M46.026 83.733a2.501 2.501 0 0 1 .003 3.533l-7.892 7.892a2.495 2.495 0 0 1-1.766.73c-.708 0-1.346-.308-1.84-.803l-3.75-3.75A2.646 2.646 0 0 1 30 89.52a2.455 2.455 0 0 1 .712-1.787 2.455 2.455 0 0 1 1.787-.713 2.645 2.645 0 0 1 1.816.78l2.054 2.054 6.123-6.123a2.495 2.495 0 0 1 3.533.002z" fill="#F79824"/></svg>