<svg viewBox="0 0 16 16" fill="none" xmlns="http://www.w3.org/2000/svg"><path d="M14.73 2.025a4.221 4.221 0 0 0-3.2-1.454c-.923 0-1.769.305-2.514.906A5.275 5.275 0 0 0 8 2.585c-.3-.433-.64-.805-1.016-1.108C6.239.876 5.394.571 4.47.571a4.221 4.221 0 0 0-3.2 1.454C.45 2.952 0 4.218 0 5.59c0 1.412.504 2.705 1.587 4.069.968 1.22 2.36 2.457 3.972 3.891.55.49 1.175 1.045 1.822 1.636a.916.916 0 0 0 1.237 0c.648-.591 1.272-1.146 1.823-1.636 1.612-1.434 3.004-2.672 3.972-3.892C15.496 8.295 16 7.002 16 5.59c0-1.372-.45-2.638-1.27-3.565z" fill="#F79824"/></svg>