<svg viewBox="0 0 21 20" fill="none" xmlns="http://www.w3.org/2000/svg"><path d="M10.173 1.764A5.747 5.747 0 0 0 8.48 6.303L8.572 7.6l2.902.209-.123-1.711A2.915 2.915 0 0 1 12.21 3.8a2.866 2.866 0 1 1 4.053 4.053 2.904 2.904 0 0 1-2.291.855c-6.355-.456-3.33-.234-7.372-.53a5.756 5.756 0 0 0-4.536 1.696 5.745 5.745 0 1 0 8.125 8.125 5.748 5.748 0 0 0 1.693-4.538l-.092-1.299-2.902-.208.122 1.71a2.916 2.916 0 0 1-.857 2.299 2.864 2.864 0 0 1-4.925-2.017A2.866 2.866 0 0 1 4.1 11.91a2.903 2.903 0 0 1 2.291-.855c6.355.456 3.33.234 7.372.53a5.771 5.771 0 1 0-3.59-9.821z" fill="#19BB81"/></svg>