<svg viewBox="0 0 310 130" fill="none" xmlns="http://www.w3.org/2000/svg"><path fill-rule="evenodd" clip-rule="evenodd" d="M178.79 17.046a5.983 5.983 0 0 1 5.983-5.983h119.002a5.983 5.983 0 0 1 5.983 5.983v20.662a5.983 5.983 0 0 1-5.983 5.983h-22.136v-1.504h22.136a4.479 4.479 0 0 0 4.479-4.48V17.047a4.479 4.479 0 0 0-4.479-4.48H184.773a4.479 4.479 0 0 0-4.479 4.48v4.156h-1.504v-4.156z" fill="#F79824"/><path fill-rule="evenodd" clip-rule="evenodd" d="M76.984 102.551v21.466a4.479 4.479 0 0 0 4.48 4.479h4.969a4.479 4.479 0 0 0 4.478-4.479v-21.466h1.504v21.466A5.983 5.983 0 0 1 86.432 130h-4.969a5.983 5.983 0 0 1-5.982-5.983v-21.466h1.503z" fill="#FFA0AC"/><path fill-rule="evenodd" clip-rule="evenodd" d="M27.517 1.504C13.15 1.504 1.504 13.15 1.504 27.517c0 9.867 5.493 18.453 13.592 22.862l-.72 1.321C5.815 47.037 0 37.957 0 27.517 0 12.32 12.32 0 27.517 0 40.534 0 51.44 9.038 54.301 21.18l-1.463.345C50.132 10.046 39.82 1.504 27.518 1.504z" fill="#8EA4D2"/><path fill-rule="evenodd" clip-rule="evenodd" d="M13.416 26.462A6.584 6.584 0 0 1 20 19.877h256.574a6.584 6.584 0 0 1 6.585 6.585v70.732a6.584 6.584 0 0 1-6.584 6.584h-114.08a1.353 1.353 0 0 1 0-2.706h114.08a3.878 3.878 0 0 0 3.877-3.878V26.461a3.878 3.878 0 0 0-3.878-3.877H20a3.878 3.878 0 0 0-3.877 3.878v70.732A3.878 3.878 0 0 0 20 101.072h105.992a1.353 1.353 0 1 1 0 2.706H20a6.584 6.584 0 0 1-6.584-6.584V26.461z" fill="#19BB81"/><path d="M38.945 79.545v-36.99h16.492c3.78 0 7.005.631 9.678 1.895 2.672 1.225 4.714 3.216 6.127 5.973 1.412 2.719 2.119 6.338 2.119 10.856 0 6.357-1.547 10.99-4.639 13.9-3.092 2.91-7.52 4.366-13.285 4.366H38.945zm10.766-8.272h4.352c1.794 0 3.302-.248 4.524-.746 1.221-.536 2.157-1.513 2.806-2.93.649-1.455.973-3.56.973-6.318 0-2.757-.305-4.882-.916-6.376-.573-1.531-1.47-2.584-2.692-3.159-1.221-.612-2.786-.919-4.695-.919H49.71v20.448z" fill="url(#paint0_linear_98_735)"/><path d="M77.063 79.545v-36.99h19.183c3.016 0 5.478.554 7.387 1.665 1.947 1.11 3.397 2.661 4.352 4.652.954 1.953 1.431 4.232 1.431 6.836 0 2.489-.63 4.69-1.889 6.605-1.222 1.876-2.863 3.312-4.925 4.308.42.345.783.766 1.088 1.264.305.46.649 1.11 1.031 1.953l4.237 9.707H97.735l-3.894-8.903c-.306-.69-.687-1.168-1.145-1.436-.42-.307-1.031-.46-1.833-.46h-3.035v10.799H77.062zm10.765-19.07h5.67c1.564 0 2.767-.402 3.607-1.206.878-.843 1.317-2.03 1.317-3.561 0-3.255-1.527-4.883-4.581-4.883h-6.013v9.65z" fill="url(#paint1_linear_98_735)"/><path d="M113.111 79.545v-36.99h10.765v36.99h-10.765z" fill="url(#paint2_linear_98_735)"/><path d="M128.264 79.545v-36.99h18.194c3.14 4.51 6.434 9.172 13.501 18.001-.265.9-.618 1.753-1.059 2.561a11.98 11.98 0 0 1-4.696 4.768c-2.023 1.148-4.409 1.723-7.158 1.723h-8.017v9.937h-10.765zm10.765-18.208h5.555c1.68 0 2.92-.48 3.722-1.436.84-.958 1.26-2.202 1.26-3.734 0-1.647-.382-2.948-1.145-3.906-.764-.957-1.947-1.436-3.551-1.436h-5.841v10.512z" fill="url(#paint3_linear_98_735)"/><path d="M164.653 62.102V42.554h27.871v8.041h-17.045v6.376h14.857v8.157h-14.857v10.958l-10.826-13.984zm30.761 17.443v-36.99h28.102v8.27H206.24v6.031h15.145v8.386H206.24v6.031h17.276v8.272h-28.102zm30.317 0v-36.99h16.584c3.801 0 7.045.631 9.732 1.895 2.688 1.225 4.742 3.216 6.162 5.973 1.42 2.719 2.131 6.338 2.131 10.856 0 6.357-1.555 10.99-4.665 13.9-3.109 2.91-7.563 4.366-13.36 4.366h-16.584zm10.826-8.272h4.376c1.805 0 3.321-.248 4.55-.746 1.228-.536 2.169-1.513 2.821-2.93.653-1.455.979-3.56.979-6.318 0-2.757-.307-4.882-.921-6.376-.576-1.531-1.478-2.584-2.707-3.159-1.228-.612-2.802-.919-4.722-.919h-4.376v20.448z" fill="#fff"/><g clip-path="url(#clip0_98_735)"><path d="M144.898 84.764c2.81-8.16 6.248-16.769 5.771-30.337-.028-4.982-4.18-11.455-4.393-11.974.15 0 .293.134.483.385l26.747 34.684c8.202 10.809 1.923 26.314-11.031 28.571-12.028 2.097-21.776-9.85-17.577-21.329z" fill="#F79824"/></g><path d="M219.166 90.134c-1.056 0-1.884-.292-2.486-.876-.601-.594-.902-1.576-.902-2.945 0-1.359.311-2.372.934-3.041.633-.669 1.478-1.003 2.533-1.003.939 0 1.752.239 2.438.716v-3.741h1.298v10.73h-1.108l-.095-.795c-.348.329-.733.573-1.156.732-.411.149-.897.223-1.456.223zm.332-1.05a3.2 3.2 0 0 0 1.204-.224c.369-.148.696-.376.981-.684v-4.108a2.811 2.811 0 0 0-.934-.541 3.378 3.378 0 0 0-1.219-.207c-.834 0-1.451.244-1.852.732-.401.478-.602 1.231-.602 2.261 0 .987.185 1.698.554 2.133.37.425.992.637 1.868.637zm9.237 1.05c-1.34 0-2.343-.324-3.008-.971-.665-.648-.997-1.645-.997-2.993 0-1.21.285-2.16.855-2.85.58-.7 1.493-1.051 2.738-1.051.739 0 1.346.138 1.821.414.486.265.845.637 1.077 1.114.242.467.364.998.364 1.593v1.416h-5.557c.042.574.163 1.025.364 1.354.211.329.522.568.934.716.422.138.976.207 1.662.207.771 0 1.478-.132 2.122-.398v1.02a5.255 5.255 0 0 1-1.108.318 6.952 6.952 0 0 1-1.267.111zm-2.707-4.267h4.401v-.62c0-.616-.163-1.089-.491-1.418-.316-.34-.844-.51-1.583-.51-.897 0-1.509.213-1.836.638-.328.424-.491 1.061-.491 1.91zm9.742 4.267c-.486 0-.95-.032-1.394-.095a5.754 5.754 0 0 1-1.092-.255v-1.147c.359.128.733.223 1.124.287a7.56 7.56 0 0 0 1.187.096c.665 0 1.14-.07 1.425-.207.285-.149.428-.42.428-.812 0-.287-.079-.505-.238-.653-.148-.149-.38-.281-.696-.398a27.31 27.31 0 0 0-1.188-.414 11.436 11.436 0 0 1-1.156-.462 1.997 1.997 0 0 1-.791-.637c-.19-.276-.285-.642-.285-1.098 0-.669.232-1.178.697-1.529.464-.36 1.213-.541 2.248-.541.401 0 .786.032 1.155.096.37.053.692.122.966.207v1.146a6.019 6.019 0 0 0-1.916-.335c-.654 0-1.129.07-1.424.207-.285.128-.428.372-.428.733 0 .244.063.44.19.589.137.138.343.26.618.366l1.092.366c.58.18 1.05.366 1.409.557.359.192.623.425.792.701.168.276.253.637.253 1.083 0 .743-.259 1.29-.776 1.64-.517.34-1.251.51-2.2.51zm5.109-9.473v-1.194h1.441v1.194h-1.441zm.127 9.314v-6.512h-1.156l.127-1.035h2.327v7.547h-1.298zm6.449 2.802c-.559 0-1.108-.032-1.646-.096a6.192 6.192 0 0 1-1.362-.302v-1.083c.423.138.897.244 1.425.319.528.074 1.035.111 1.52.111.792 0 1.372-.047 1.742-.143.369-.096.554-.34.554-.733 0-.275-.101-.472-.301-.588-.19-.117-.533-.176-1.029-.176h-1.995c-1.383 0-2.074-.467-2.074-1.4 0-.309.095-.6.285-.876.201-.287.496-.489.887-.605-.423-.213-.734-.505-.934-.876-.201-.382-.301-.833-.301-1.353 0-.945.269-1.63.807-2.054.549-.435 1.383-.653 2.502-.653.232 0 .469.021.712.064.253.032.449.063.586.095h2.707l-.047.892h-1.362c.243.201.417.446.522.732.106.276.159.584.159.924 0 .838-.243 1.49-.729 1.958-.485.456-1.229.684-2.232.684-.169 0-.322-.005-.459-.015a9.946 9.946 0 0 0-.459-.064c-.327.01-.633.106-.918.287-.285.17-.428.392-.428.668 0 .18.069.313.206.398.148.085.412.128.792.128h2.074c.749 0 1.324.154 1.725.461.401.297.602.738.602 1.322 0 .743-.306 1.258-.918 1.544-.613.287-1.483.43-2.613.43zm.08-6.146c.749 0 1.266-.122 1.551-.366.285-.244.428-.674.428-1.29 0-.615-.153-1.06-.46-1.337-.295-.276-.802-.414-1.519-.414-.708 0-1.219.133-1.536.398-.317.266-.475.717-.475 1.354 0 .583.148 1.008.443 1.273.306.255.829.382 1.568.382zm5.263 3.344v-7.547h1.172l.079.86a4.69 4.69 0 0 1 1.251-.733c.485-.19 1.039-.286 1.662-.286.95 0 1.641.223 2.074.669.433.445.649 1.146.649 2.101v4.936h-1.298v-4.888c0-.658-.132-1.115-.396-1.37-.264-.265-.77-.397-1.52-.397-.464 0-.902.085-1.314.255-.411.17-.765.403-1.06.7v5.7h-1.299z" fill="#fff"/><defs><linearGradient id="paint0_linear_98_735" x1="143.15" y1="59.846" x2="153.826" y2="62.252" gradientUnits="userSpaceOnUse"><stop stop-color="#fff"/><stop offset="1" stop-color="#060921"/></linearGradient><linearGradient id="paint1_linear_98_735" x1="143.15" y1="59.846" x2="153.826" y2="62.252" gradientUnits="userSpaceOnUse"><stop stop-color="#fff"/><stop offset="1" stop-color="#060921"/></linearGradient><linearGradient id="paint2_linear_98_735" x1="143.15" y1="59.846" x2="153.826" y2="62.252" gradientUnits="userSpaceOnUse"><stop stop-color="#fff"/><stop offset="1" stop-color="#060921"/></linearGradient><linearGradient id="paint3_linear_98_735" x1="143.15" y1="59.846" x2="153.826" y2="62.252" gradientUnits="userSpaceOnUse"><stop stop-color="#fff"/><stop offset="1" stop-color="#060921"/></linearGradient><clipPath id="clip0_98_735"><path fill="#fff" transform="translate(143.602 42.554)" d="M0 0H33.682V64.057H0z"/></clipPath></defs></svg>