<svg viewBox="0 0 457 309" fill="none" xmlns="http://www.w3.org/2000/svg"><path fill-rule="evenodd" clip-rule="evenodd" d="M147.866.33a7.162 7.162 0 0 1 7.162 7.16v169.002c0 30.634-24.18 68.747-74.484 68.747-24.846 0-45.143-9.387-59.134-25.574C7.52 203.595.33 181.401.33 156.441c0-50.423 35.4-90.23 80.214-90.23a7.162 7.162 0 1 1 0 14.323c-35.4 0-65.89 31.804-65.89 75.907 0 22.304 6.417 40.928 17.594 53.86 11.076 12.815 27.306 20.615 48.296 20.615 41.368 0 60.16-30.634 60.16-54.424V7.491A7.161 7.161 0 0 1 147.866.33z" fill="#19BB81"/><path fill-rule="evenodd" clip-rule="evenodd" d="M374.157 131.42a7.162 7.162 0 0 1 7.162 7.161v105.984c0 26.015-7.041 46.204-22.669 56.761-15.611 10.546-37.099 9.659-61.597.032a7.16 7.16 0 1 1 5.239-13.33c22.771 8.948 38.525 8.061 48.339 1.431 9.796-6.618 16.364-20.78 16.364-44.894V138.581a7.162 7.162 0 0 1 7.162-7.161z" fill="#FFA0AC"/><path fill-rule="evenodd" clip-rule="evenodd" d="M228.969 67.832a7.161 7.161 0 0 1-5.618-8.427l7.023 1.405c-7.023-1.405-7.022-1.408-7.022-1.412l.002-.008.003-.017.009-.04.022-.105.068-.302c.057-.24.137-.56.244-.946.213-.771.536-1.821 1.004-3.058.927-2.454 2.461-5.753 4.908-9.089 5.038-6.87 13.844-13.668 27.977-13.668 6.958 0 12.272 1.666 16.567 4.616 3.808 2.616 6.412 6.023 8.306 8.502l.327.428c2.102 2.742 3.538 4.472 5.483 5.73 1.759 1.14 4.469 2.208 9.424 2.208h97.077a7.162 7.162 0 1 1 0 14.322h-97.077c-7.22 0-12.747-1.618-17.209-4.507-4.239-2.744-7-6.345-9.011-8.969l-.054-.07c-2.2-2.868-3.547-4.582-5.377-5.84-1.57-1.078-3.955-2.097-8.456-2.097-8.785 0-13.586 3.943-16.426 7.815-1.493 2.035-2.465 4.107-3.06 5.68a20.768 20.768 0 0 0-.596 1.81c-.056.2-.091.343-.108.417l-.012.052a7.162 7.162 0 0 1-8.418 5.57z" fill="#F79824"/><path fill-rule="evenodd" clip-rule="evenodd" d="M420.011 32.304a7.161 7.161 0 0 1 8.427-5.618l-1.405 7.022c1.405-7.022 1.409-7.02 1.412-7.02l.008.001.017.004.041.008.104.023.302.068c.24.057.56.136.946.243.772.213 1.822.537 3.059 1.004 2.454.927 5.753 2.461 9.09 4.907 6.87 5.038 13.669 13.843 13.669 27.974 0 6.958-1.665 12.271-4.616 16.565-2.617 3.808-6.024 6.412-8.503 8.305-.146.112-.289.22-.428.328-2.742 2.101-4.472 3.537-5.732 5.481-1.139 1.76-2.207 4.47-2.207 9.424V254.27a7.161 7.161 0 0 1-7.162 7.161 7.162 7.162 0 0 1-7.162-7.161V101.023c0-7.22 1.618-12.745 4.508-17.208 2.745-4.238 6.345-6.998 8.969-9.01l.071-.054c2.869-2.199 4.582-3.546 5.84-5.376 1.078-1.57 2.098-3.954 2.098-8.455 0-8.784-3.943-13.584-7.816-16.424-2.035-1.492-4.107-2.465-5.681-3.06a21.102 21.102 0 0 0-1.81-.596 11.772 11.772 0 0 0-.469-.12 7.16 7.16 0 0 1-5.57-8.416z" fill="#89DAFF"/><path fill-rule="evenodd" clip-rule="evenodd" d="M259.405 223.51c30.877 0 55.907-25.028 55.907-55.901 0-30.874-25.03-55.901-55.907-55.901-30.877 0-55.908 25.027-55.908 55.901 0 30.873 25.031 55.901 55.908 55.901zm0 14.326c38.79 0 70.235-31.442 70.235-70.227 0-38.786-31.445-70.228-70.235-70.228s-70.236 31.442-70.236 70.228c0 38.785 31.446 70.227 70.236 70.227z" fill="#E6E6E6"/><path d="M187.295 286.527c0 8.274-6.709 14.982-14.984 14.982s-14.983-6.708-14.983-14.982 6.708-14.982 14.983-14.982 14.984 6.708 14.984 14.982z" fill="#F79824"/></svg>