<svg viewBox="0 0 20 22" fill="none" xmlns="http://www.w3.org/2000/svg"><g clip-path="url(#clip0_613_6904)"><g opacity=".4" clip-path="url(#clip1_613_6904)"><path d="M19.704 14.826a1.03 1.03 0 0 0-.301-1.094l-4.233-3.704 1.256-5.494A1.031 1.031 0 0 0 14.89 3.42l-4.837 2.892-4.832-2.882a1.033 1.033 0 0 0-1.534 1.116l1.243 5.492L.689 13.75a1.031 1.031 0 0 0 .586 1.805l5.605.502 2.21 5.175a1.03 1.03 0 0 0 1.897 0l2.222-5.182 5.608-.515c.41-.038.76-.316.887-.71z" fill="#FFA0AC"/></g><g clip-path="url(#clip2_613_6904)"><path d="M19.915 8.58a1.062 1.062 0 0 0-.914-.73l-5.774-.523-2.281-5.342a1.063 1.063 0 0 0-1.956 0L6.708 7.327.934 7.85A1.065 1.065 0 0 0 .33 9.71l4.364 3.826-1.287 5.668a1.063 1.063 0 0 0 1.582 1.15l4.978-2.977 4.978 2.976a1.062 1.062 0 0 0 1.582-1.15l-1.286-5.667 4.364-3.826c.32-.281.442-.724.31-1.13z" fill="#F79824"/></g></g><defs><clipPath id="clip0_613_6904"><path fill="#fff" transform="translate(0 .985)" d="M0 0H20V21H0z"/></clipPath><clipPath id="clip1_613_6904"><path fill="#fff" transform="rotate(36 8.122 11.66)" d="M0 0H19.403V19.403H0z"/></clipPath><clipPath id="clip2_613_6904"><path fill="#fff" transform="translate(-.033 .939)" d="M0 0H20V20H0z"/></clipPath></defs></svg>