<svg viewBox="0 0 360 220" fill="none" xmlns="http://www.w3.org/2000/svg"><path fill-rule="evenodd" clip-rule="evenodd" d="M31 190.903c0 1.158.94 2.097 2.098 2.097h71.051c7.621 0 13.536-2.061 16.629-6.637 3.09-4.57 2.83-10.861.009-18.033a2.098 2.098 0 0 0-3.905 1.534c2.622 6.667 2.362 11.279.419 14.152-1.939 2.868-6.088 4.791-13.152 4.791H33.098A2.097 2.097 0 0 0 31 190.903zM353.916 18.047c1.404.26 2.314 1.524 2.033 2.824l-2.541-.47c2.541.47 2.541.471 2.541.473l-.001.002-.001.006-.003.013-.008.035-.025.102a11.201 11.201 0 0 1-.451 1.342 12.638 12.638 0 0 1-1.776 3.046c-1.823 2.302-5.01 4.58-10.123 4.58-2.518 0-4.441-.558-5.995-1.547-1.378-.877-2.32-2.018-3.005-2.85l-.119-.143c-.76-.918-1.28-1.498-1.984-1.92-.636-.382-1.617-.74-3.41-.74h-55.457c-1.431 0-2.591-1.074-2.591-2.4 0-1.325 1.16-2.4 2.591-2.4h55.457c2.613 0 4.613.543 6.227 1.51 1.534.92 2.533 2.127 3.261 3.006l.019.024c.796.961 1.284 1.536 1.946 1.957.568.361 1.431.703 3.06.703 3.178 0 4.916-1.321 5.943-2.619a7.908 7.908 0 0 0 1.107-1.904 6.394 6.394 0 0 0 .255-.746l.004-.017c.289-1.29 1.649-2.126 3.046-1.867z" fill="#F79824"/><path d="M324 176a8 8 0 1 1-16 0 8 8 0 0 1 16 0z" fill="#F79824"/><path fill-rule="evenodd" clip-rule="evenodd" d="M300.5 145c28.995 0 52.5-23.505 52.5-52.5S329.495 40 300.5 40 248 63.505 248 92.5s23.505 52.5 52.5 52.5zm0 3c30.652 0 55.5-24.848 55.5-55.5S331.152 37 300.5 37 245 61.848 245 92.5s24.848 55.5 55.5 55.5z" fill="#FFA0AC"/><path d="M266.483 82v-9.016h4.228c.709 0 1.288.135 1.736.406.457.27.798.64 1.022 1.106.224.467.336.999.336 1.596 0 .607-.131 1.143-.392 1.61-.252.467-.616.83-1.092 1.092-.467.252-1.022.378-1.666.378h-2.282V82h-1.89zm1.89-4.326h1.89c.541 0 .947-.14 1.218-.42.28-.29.42-.677.42-1.162 0-.523-.131-.92-.392-1.19-.262-.28-.654-.42-1.176-.42h-1.96v3.192zm9.935 4.466c-1.148 0-2.058-.285-2.73-.854-.672-.579-1.008-1.451-1.008-2.618 0-1.055.28-1.89.84-2.506.569-.625 1.414-.938 2.534-.938 1.026 0 1.81.27 2.352.812.55.532.826 1.232.826 2.1v1.204h-4.802c.102.532.345.896.728 1.092.392.196.942.294 1.652.294.354 0 .714-.033 1.078-.098.373-.065.69-.15.952-.252v1.344c-.308.14-.668.243-1.078.308a7.528 7.528 0 0 1-1.344.112zm-1.988-3.962h3.15v-.364c0-.383-.112-.681-.336-.896-.224-.224-.602-.336-1.134-.336-.626 0-1.064.126-1.316.378-.243.252-.364.658-.364 1.218zM282.438 82v-6.636h1.75l.084.686a5.315 5.315 0 0 1 1.106-.504 6.423 6.423 0 0 1 1.316-.322v1.428a10.147 10.147 0 0 0-1.68.42c-.271.093-.5.191-.686.294V82h-1.89zm5.222 0v-6.636h1.75l.07.644a4.036 4.036 0 0 1 1.036-.574c.383-.14.794-.21 1.232-.21.467 0 .826.07 1.078.21.262.14.462.34.602.602a3.962 3.962 0 0 1 1.05-.588c.402-.15.873-.224 1.414-.224.766 0 1.33.2 1.694.602.364.392.546.994.546 1.806V82h-1.862v-4.158c0-.439-.093-.751-.28-.938-.186-.196-.485-.294-.896-.294-.56 0-1.026.2-1.4.602.047.159.07.35.07.574V82H292v-4.158c0-.41-.07-.719-.21-.924-.14-.205-.41-.308-.812-.308-.28 0-.546.075-.798.224-.242.14-.462.303-.658.49V82h-1.862zm13.899.14c-.42 0-.812-.075-1.176-.224a2.171 2.171 0 0 1-.868-.686c-.215-.308-.322-.69-.322-1.148 0-.653.228-1.176.686-1.568.466-.392 1.152-.588 2.058-.588h1.96v-.182c0-.41-.117-.7-.35-.868-.224-.168-.682-.252-1.372-.252-.756 0-1.484.117-2.184.35v-1.33c.308-.121.681-.22 1.12-.294a7.904 7.904 0 0 1 1.456-.126c.998 0 1.768.205 2.31.616.55.401.826 1.05.826 1.946V82h-1.638l-.098-.602a2.79 2.79 0 0 1-.966.546c-.383.13-.864.196-1.442.196zm.518-1.246c.42 0 .784-.07 1.092-.21.308-.14.55-.317.728-.532v-1.05h-1.918c-.738 0-1.106.303-1.106.91 0 .588.401.882 1.204.882zM307.225 82v-6.636h1.75l.07.63a3.86 3.86 0 0 1 1.022-.532 3.69 3.69 0 0 1 1.316-.238c.877 0 1.516.205 1.918.616.401.41.602 1.045.602 1.904V82h-1.89v-4.158c0-.448-.094-.765-.28-.952-.178-.187-.514-.28-1.008-.28-.29 0-.584.065-.882.196-.29.13-.532.294-.728.49V82h-1.89zm11.456.14c-1.148 0-2.058-.285-2.73-.854-.672-.579-1.008-1.451-1.008-2.618 0-1.055.28-1.89.84-2.506.569-.625 1.414-.938 2.534-.938 1.026 0 1.81.27 2.352.812.55.532.826 1.232.826 2.1v1.204h-4.802c.102.532.345.896.728 1.092.392.196.942.294 1.652.294.354 0 .714-.033 1.078-.098.373-.065.69-.15.952-.252v1.344c-.308.14-.668.243-1.078.308a7.528 7.528 0 0 1-1.344.112zm-1.988-3.962h3.15v-.364c0-.383-.112-.681-.336-.896-.224-.224-.602-.336-1.134-.336-.626 0-1.064.126-1.316.378-.243.252-.364.658-.364 1.218zM322.811 82v-6.636h1.75l.07.63a3.86 3.86 0 0 1 1.022-.532 3.69 3.69 0 0 1 1.316-.238c.877 0 1.516.205 1.918.616.401.41.602 1.045.602 1.904V82h-1.89v-4.158c0-.448-.094-.765-.28-.952-.178-.187-.514-.28-1.008-.28-.29 0-.584.065-.882.196-.29.13-.532.294-.728.49V82h-1.89zm10.848.14c-.765 0-1.334-.2-1.708-.602-.364-.401-.546-.947-.546-1.638v-3.08h-.938v-1.456h.938v-1.428l1.89-.56v1.988h1.68l-.112 1.456h-1.568v2.954c0 .364.084.616.252.756.168.13.43.196.784.196.262 0 .532-.047.812-.14v1.302a2.945 2.945 0 0 1-.672.182c-.242.047-.513.07-.812.07zM269.88 96v-9.016h6.468v1.47h-4.578v2.31h4.06v1.456h-4.06v2.324h4.578V96h-6.468zm7.779 0v-6.636h1.75l.07.644a4.036 4.036 0 0 1 1.036-.574c.383-.14.794-.21 1.232-.21.467 0 .826.07 1.078.21.262.14.462.34.602.602a3.962 3.962 0 0 1 1.05-.588c.402-.15.873-.224 1.414-.224.766 0 1.33.2 1.694.602.364.392.546.994.546 1.806V96h-1.862v-4.158c0-.439-.093-.751-.28-.938-.186-.196-.485-.294-.896-.294-.56 0-1.026.2-1.4.602.047.159.07.35.07.574V96h-1.764v-4.158c0-.41-.07-.719-.21-.924-.14-.205-.41-.308-.812-.308-.28 0-.546.075-.798.224-.242.14-.462.303-.658.49V96h-1.862zm12.018 3.024v-9.66h1.638l.098.616c.289-.243.607-.43.952-.56.345-.13.751-.196 1.218-.196.971 0 1.717.266 2.24.798.532.523.798 1.381.798 2.576s-.285 2.086-.854 2.674c-.56.579-1.325.868-2.296.868-.747 0-1.381-.168-1.904-.504v3.388h-1.89zm3.318-4.27c.56 0 .985-.173 1.274-.518.289-.345.434-.887.434-1.624 0-.71-.131-1.218-.392-1.526-.261-.317-.681-.476-1.26-.476s-1.073.2-1.484.602v3.038c.196.15.401.27.616.364.224.093.495.14.812.14zm6.788 1.386c-.644 0-1.116-.15-1.414-.448-.29-.299-.434-.775-.434-1.428v-7.7h1.89v7.546c0 .233.046.397.14.49.093.084.228.126.406.126.242 0 .462-.033.658-.098v1.302c-.355.14-.77.21-1.246.21zm5.64 0c-1.242 0-2.152-.299-2.73-.896-.579-.607-.868-1.46-.868-2.562 0-1.101.289-1.95.868-2.548.588-.607 1.498-.91 2.73-.91 1.241 0 2.151.303 2.73.91.588.597.882 1.447.882 2.548s-.29 1.955-.868 2.562c-.579.597-1.494.896-2.744.896zm0-1.61c.606 0 1.04-.135 1.302-.406.261-.28.392-.76.392-1.442 0-.681-.131-1.157-.392-1.428-.262-.28-.696-.42-1.302-.42-.598 0-1.027.14-1.288.42-.262.27-.392.747-.392 1.428 0 .681.13 1.162.392 1.442.261.27.69.406 1.288.406zm5.896 3.934a4.73 4.73 0 0 1-.77-.056 2.732 2.732 0 0 1-.658-.168v-1.33a2.297 2.297 0 0 0 .854.14c.383 0 .677-.089.882-.266.215-.177.429-.476.644-.896l-2.968-6.524h1.974l1.946 4.508 1.932-4.508h1.96l-2.618 6.174a9.358 9.358 0 0 1-.798 1.526c-.28.448-.611.793-.994 1.036s-.845.364-1.386.364zm9.679-2.324c-1.148 0-2.058-.285-2.73-.854-.672-.579-1.008-1.451-1.008-2.618 0-1.055.28-1.89.84-2.506.57-.625 1.414-.938 2.534-.938 1.027 0 1.811.27 2.352.812.551.532.826 1.232.826 2.1v1.204h-4.802c.103.532.346.896.728 1.092.392.196.943.294 1.652.294.355 0 .714-.033 1.078-.098.374-.065.691-.15.952-.252v1.344c-.308.14-.667.243-1.078.308-.41.075-.858.112-1.344.112zm-1.988-3.962h3.15v-.364c0-.383-.112-.681-.336-.896-.224-.224-.602-.336-1.134-.336-.625 0-1.064.126-1.316.378-.242.252-.364.658-.364 1.218zm9.576 3.962c-1.148 0-2.058-.285-2.73-.854-.672-.579-1.008-1.451-1.008-2.618 0-1.055.28-1.89.84-2.506.569-.625 1.414-.938 2.534-.938 1.027 0 1.811.27 2.352.812.551.532.826 1.232.826 2.1v1.204h-4.802c.103.532.345.896.728 1.092.392.196.943.294 1.652.294.355 0 .714-.033 1.078-.098.373-.065.691-.15.952-.252v1.344c-.308.14-.667.243-1.078.308a7.528 7.528 0 0 1-1.344.112zm-1.988-3.962h3.15v-.364c0-.383-.112-.681-.336-.896-.224-.224-.602-.336-1.134-.336-.625 0-1.064.126-1.316.378-.243.252-.364.658-.364 1.218z" fill="#fff"/><path d="M170.024 89.393c-1.157-6.831 5.516-12.353 12.01-9.938l112.172 41.7c6.494 2.414 7.939 10.953 2.602 15.37l-92.2 76.294c-5.338 4.417-13.455 1.399-14.612-5.432L170.024 89.393z" fill="#060921"/><path fill-rule="evenodd" clip-rule="evenodd" d="M292.812 124.904l-112.172-41.7c-3.608-1.341-7.315 1.726-6.672 5.521L193.94 206.72c.643 3.795 5.152 5.472 8.118 3.018l92.2-76.294c2.965-2.454 2.162-7.198-1.446-8.539zm-110.778-45.45c-6.494-2.413-13.167 3.108-12.01 9.939l19.972 117.994c1.157 6.831 9.274 9.849 14.612 5.432l92.2-76.294c5.337-4.417 3.892-12.956-2.602-15.37l-112.172-41.7z" fill="#89DAFF"/><path d="M194.163 137v-9.016h6.342v1.47h-4.452v2.31h3.934v1.456h-3.934V137h-1.89zm7.64-7.854v-1.484h2.058v1.484h-2.058zm.154 7.854v-5.236h-.994l.168-1.4h2.716V137h-1.89zm3.065 0l2.548-3.374-2.45-3.262h2.044l1.428 1.932 1.428-1.932h2.044l-2.436 3.262 2.534 3.374h-2.058l-1.512-2.03-1.512 2.03h-2.058zm11.179.14c-1.148 0-2.058-.285-2.73-.854-.672-.579-1.008-1.451-1.008-2.618 0-1.055.28-1.89.84-2.506.57-.625 1.414-.938 2.534-.938 1.027 0 1.811.271 2.352.812.551.532.826 1.232.826 2.1v1.204h-4.802c.103.532.346.896.728 1.092.392.196.943.294 1.652.294.355 0 .714-.033 1.078-.098.374-.065.691-.149.952-.252v1.344a4.18 4.18 0 0 1-1.078.308c-.41.075-.858.112-1.344.112zm-1.988-3.962h3.15v-.364c0-.383-.112-.681-.336-.896-.224-.224-.602-.336-1.134-.336-.625 0-1.064.126-1.316.378-.242.252-.364.658-.364 1.218zm8.89 3.962a3.896 3.896 0 0 1-1.582-.308 2.364 2.364 0 0 1-1.078-1.036c-.261-.485-.392-1.125-.392-1.918 0-.793.145-1.461.434-2.002.29-.541.677-.952 1.162-1.232a3.14 3.14 0 0 1 1.596-.42c.728 0 1.349.168 1.862.504v-3.164h1.89V137h-1.624l-.112-.616a3.12 3.12 0 0 1-.952.574c-.336.121-.737.182-1.204.182zm.518-1.386c.588 0 1.083-.201 1.484-.602v-3.024a2.012 2.012 0 0 0-1.372-.518c-1.176 0-1.764.756-1.764 2.268 0 .709.145 1.199.434 1.47.29.271.696.406 1.218.406zm4.688-1.82v-1.47h5.404v1.47h-5.404zM237.24 137v-7.56h-2.772v-1.456h7.42v1.456h-2.758V137h-1.89zm7.823.14c-1.148 0-2.058-.285-2.73-.854-.672-.579-1.008-1.451-1.008-2.618 0-1.055.28-1.89.84-2.506.569-.625 1.414-.938 2.534-.938 1.026 0 1.81.271 2.352.812.55.532.826 1.232.826 2.1v1.204h-4.802c.102.532.345.896.728 1.092.392.196.942.294 1.652.294a6.13 6.13 0 0 0 1.078-.098c.373-.065.69-.149.952-.252v1.344c-.308.14-.668.243-1.078.308a7.5 7.5 0 0 1-1.344.112zm-1.988-3.962h3.15v-.364c0-.383-.112-.681-.336-.896-.224-.224-.602-.336-1.134-.336-.626 0-1.064.126-1.316.378-.243.252-.364.658-.364 1.218zm6.118 3.822v-6.636h1.75l.084.686a5.284 5.284 0 0 1 1.106-.504 6.403 6.403 0 0 1 1.316-.322v1.428a10.376 10.376 0 0 0-1.68.42c-.271.093-.5.191-.686.294V137h-1.89zm5.222 0v-6.636h1.75l.07.644a4.027 4.027 0 0 1 1.036-.574c.383-.14.794-.21 1.232-.21.467 0 .826.07 1.078.21.262.14.462.341.602.602a3.945 3.945 0 0 1 1.05-.588c.402-.149.873-.224 1.414-.224.766 0 1.33.201 1.694.602.364.392.546.994.546 1.806V137h-1.862v-4.158c0-.439-.093-.751-.28-.938-.186-.196-.485-.294-.896-.294-.56 0-1.026.201-1.4.602.047.159.07.35.07.574V137h-1.764v-4.158c0-.411-.07-.719-.21-.924-.14-.205-.41-.308-.812-.308-.28 0-.546.075-.798.224-.242.14-.462.303-.658.49V137h-1.862zm-53.661 14.14c-1.512 0-2.67-.406-3.472-1.218-.803-.821-1.204-1.937-1.204-3.346 0-1.493.387-2.655 1.162-3.486.784-.831 1.95-1.246 3.5-1.246a7.63 7.63 0 0 1 1.456.126 7.05 7.05 0 0 1 1.232.322v1.652a6.623 6.623 0 0 0-2.548-.49c-1.027 0-1.764.257-2.212.77-.448.513-.672 1.297-.672 2.352 0 1.979.97 2.968 2.912 2.968.438 0 .872-.037 1.302-.112a6.69 6.69 0 0 0 1.232-.364v1.666a9.303 9.303 0 0 1-1.232.294c-.43.075-.915.112-1.456.112zm7.316 0c-1.241 0-2.151-.299-2.73-.896-.579-.607-.868-1.461-.868-2.562 0-1.101.289-1.951.868-2.548.588-.607 1.498-.91 2.73-.91 1.241 0 2.151.303 2.73.91.588.597.882 1.447.882 2.548s-.289 1.955-.868 2.562c-.579.597-1.493.896-2.744.896zm0-1.61c.607 0 1.041-.135 1.302-.406.261-.28.392-.761.392-1.442 0-.681-.131-1.157-.392-1.428-.261-.28-.695-.42-1.302-.42-.597 0-1.027.14-1.288.42-.261.271-.392.747-.392 1.428 0 .681.131 1.162.392 1.442.261.271.691.406 1.288.406zm4.926 1.47v-6.636h1.75l.07.63a3.892 3.892 0 0 1 1.022-.532c.42-.159.859-.238 1.316-.238.878 0 1.517.205 1.918.616.402.411.602 1.045.602 1.904V151h-1.89v-4.158c0-.448-.093-.765-.28-.952-.177-.187-.513-.28-1.008-.28-.289 0-.583.065-.882.196a2.442 2.442 0 0 0-.728.49V151h-1.89zm10.849.14c-.765 0-1.335-.201-1.708-.602-.364-.401-.546-.947-.546-1.638v-3.08h-.938v-1.456h.938v-1.428l1.89-.56v1.988h1.68l-.112 1.456h-1.568v2.954c0 .364.084.616.252.756.168.131.429.196.784.196.261 0 .532-.047.812-.14v1.302a2.93 2.93 0 0 1-.672.182c-.243.047-.513.07-.812.07zm2.454-.14v-6.636h1.75l.084.686a5.308 5.308 0 0 1 1.106-.504 6.419 6.419 0 0 1 1.316-.322v1.428a8.484 8.484 0 0 0-.826.168c-.299.075-.583.159-.854.252a4.376 4.376 0 0 0-.686.294V151h-1.89zm6.885.14c-.42 0-.812-.075-1.176-.224a2.171 2.171 0 0 1-.868-.686c-.215-.308-.322-.691-.322-1.148 0-.653.228-1.176.686-1.568.466-.392 1.152-.588 2.058-.588h1.96v-.182c0-.411-.117-.7-.35-.868-.224-.168-.682-.252-1.372-.252a6.87 6.87 0 0 0-2.184.35v-1.33a5.731 5.731 0 0 1 1.12-.294 7.904 7.904 0 0 1 1.456-.126c.998 0 1.768.205 2.31.616.55.401.826 1.05.826 1.946V151h-1.638l-.098-.602a2.8 2.8 0 0 1-.966.546c-.383.131-.864.196-1.442.196zm.518-1.246c.42 0 .784-.07 1.092-.21.308-.14.55-.317.728-.532v-1.05h-1.918c-.738 0-1.106.303-1.106.91 0 .588.401.882 1.204.882zm8.536 1.246c-1.186 0-2.096-.294-2.73-.882-.626-.588-.938-1.447-.938-2.576 0-1.167.336-2.035 1.008-2.604.681-.569 1.586-.854 2.716-.854.466 0 .868.033 1.204.098.336.065.662.173.98.322v1.358a3.599 3.599 0 0 0-.812-.266 4.814 4.814 0 0 0-.994-.098c-.71 0-1.251.149-1.624.448-.374.289-.56.821-.56 1.596 0 .709.168 1.227.504 1.554.345.327.9.49 1.666.49.326 0 .644-.033.952-.098.317-.065.611-.163.882-.294v1.4c-.626.271-1.377.406-2.254.406zm6.08 0c-.766 0-1.335-.201-1.708-.602-.364-.401-.546-.947-.546-1.638v-3.08h-.938v-1.456h.938v-1.428l1.89-.56v1.988h1.68l-.112 1.456h-1.568v2.954c0 .364.084.616.252.756.168.131.429.196.784.196.261 0 .532-.047.812-.14v1.302c-.206.084-.43.145-.672.182-.243.047-.514.07-.812.07zm5.772 0c-1.242 0-2.152-.299-2.73-.896-.579-.607-.868-1.461-.868-2.562 0-1.101.289-1.951.868-2.548.588-.607 1.498-.91 2.73-.91 1.241 0 2.151.303 2.73.91.588.597.882 1.447.882 2.548s-.29 1.955-.868 2.562c-.579.597-1.494.896-2.744.896zm0-1.61c.606 0 1.04-.135 1.302-.406.261-.28.392-.761.392-1.442 0-.681-.131-1.157-.392-1.428-.262-.28-.696-.42-1.302-.42-.598 0-1.027.14-1.288.42-.262.271-.392.747-.392 1.428 0 .681.13 1.162.392 1.442.261.271.69.406 1.288.406zm4.926 1.47v-6.636h1.75l.084.686a5.284 5.284 0 0 1 1.106-.504 6.403 6.403 0 0 1 1.316-.322v1.428a10.376 10.376 0 0 0-1.68.42c-.271.093-.5.191-.686.294V151h-1.89z" fill="#fff"/><path fill-rule="evenodd" clip-rule="evenodd" d="M88.685 66h-68.37C13.514 66 8 71.514 8 78.315v81.37C8 166.486 13.514 172 20.315 172h68.37c6.801 0 12.315-5.514 12.315-12.315v-81.37C101 71.514 95.486 66 88.685 66zm-68.37-3C11.857 63 5 69.857 5 78.315v81.37C5 168.143 11.857 175 20.315 175h68.37c8.458 0 15.315-6.857 15.315-15.315v-81.37C104 69.857 97.143 63 88.685 63h-68.37z" fill="#19BB81"/><path d="M21.439 142v-9.016h6.342v1.47h-4.452v2.31h3.934v1.456h-3.934V142h-1.89zm7.027 0v-6.636h1.75l.084.686a5.306 5.306 0 0 1 1.106-.504 6.413 6.413 0 0 1 1.316-.322v1.428a8.46 8.46 0 0 0-.826.168c-.299.075-.583.159-.854.252-.27.093-.5.191-.686.294V142h-1.89zm8.407.14c-1.148 0-2.058-.285-2.73-.854-.672-.579-1.008-1.451-1.008-2.618 0-1.055.28-1.89.84-2.506.57-.625 1.414-.938 2.534-.938 1.027 0 1.81.271 2.352.812.55.532.826 1.232.826 2.1v1.204h-4.802c.103.532.346.896.728 1.092.392.196.943.294 1.652.294.355 0 .714-.033 1.078-.098.373-.065.69-.149.952-.252v1.344c-.308.14-.667.243-1.078.308-.41.075-.858.112-1.344.112zm-1.988-3.962h3.15v-.364c0-.383-.112-.681-.336-.896-.224-.224-.602-.336-1.134-.336-.625 0-1.064.126-1.316.378-.242.252-.364.658-.364 1.218zm9.576 3.962c-1.148 0-2.058-.285-2.73-.854-.672-.579-1.008-1.451-1.008-2.618 0-1.055.28-1.89.84-2.506.57-.625 1.414-.938 2.534-.938 1.027 0 1.81.271 2.352.812.55.532.826 1.232.826 2.1v1.204h-4.802c.103.532.345.896.728 1.092.392.196.943.294 1.652.294.355 0 .714-.033 1.078-.098a4.93 4.93 0 0 0 .952-.252v1.344c-.308.14-.667.243-1.078.308-.41.075-.859.112-1.344.112zm-1.988-3.962h3.15v-.364c0-.383-.112-.681-.336-.896-.224-.224-.602-.336-1.134-.336-.625 0-1.064.126-1.316.378-.243.252-.364.658-.364 1.218zm7.966 3.962c-.644 0-1.115-.149-1.414-.448-.29-.299-.434-.775-.434-1.428v-7.7h1.89v7.546c0 .233.047.397.14.49.093.084.229.126.406.126.243 0 .462-.033.658-.098v1.302c-.355.14-.77.21-1.246.21zm4.408 0c-.42 0-.812-.075-1.176-.224a2.173 2.173 0 0 1-.868-.686c-.215-.308-.322-.691-.322-1.148 0-.653.229-1.176.686-1.568.467-.392 1.153-.588 2.058-.588h1.96v-.182c0-.411-.117-.7-.35-.868-.224-.168-.681-.252-1.372-.252a6.87 6.87 0 0 0-2.184.35v-1.33a5.737 5.737 0 0 1 1.12-.294 7.907 7.907 0 0 1 1.456-.126c.999 0 1.769.205 2.31.616.55.401.826 1.05.826 1.946V142h-1.638l-.098-.602a2.787 2.787 0 0 1-.966.546c-.383.131-.863.196-1.442.196zm.518-1.246c.42 0 .784-.07 1.092-.21.308-.14.55-.317.728-.532v-1.05h-1.918c-.737 0-1.106.303-1.106.91 0 .588.401.882 1.204.882zM60.513 142v-6.636h1.75l.07.63c.27-.205.611-.383 1.022-.532.42-.159.858-.238 1.316-.238.877 0 1.516.205 1.918.616.401.411.602 1.045.602 1.904V142H65.3v-4.158c0-.448-.094-.765-.28-.952-.177-.187-.514-.28-1.008-.28-.29 0-.584.065-.882.196-.29.131-.532.294-.728.49V142h-1.89zm11.386.14c-1.185 0-2.095-.294-2.73-.882-.625-.588-.938-1.447-.938-2.576 0-1.167.336-2.035 1.008-2.604.681-.569 1.587-.854 2.716-.854.467 0 .868.033 1.204.098.336.065.663.173.98.322v1.358a3.587 3.587 0 0 0-.812-.266 4.81 4.81 0 0 0-.994-.098c-.71 0-1.25.149-1.624.448-.373.289-.56.821-.56 1.596 0 .709.168 1.227.504 1.554.345.327.9.49 1.666.49.327 0 .644-.033.952-.098.317-.065.611-.163.882-.294v1.4c-.625.271-1.377.406-2.254.406zm6.906 0c-1.148 0-2.058-.285-2.73-.854-.672-.579-1.008-1.451-1.008-2.618 0-1.055.28-1.89.84-2.506.57-.625 1.414-.938 2.534-.938 1.026 0 1.81.271 2.352.812.55.532.826 1.232.826 2.1v1.204h-4.802c.103.532.345.896.728 1.092.392.196.942.294 1.652.294.355 0 .714-.033 1.078-.098.373-.065.69-.149.952-.252v1.344c-.308.14-.668.243-1.078.308-.41.075-.859.112-1.344.112zm-1.988-3.962h3.15v-.364c0-.383-.112-.681-.336-.896-.224-.224-.602-.336-1.134-.336-.626 0-1.064.126-1.316.378-.243.252-.364.658-.364 1.218zM82.935 142v-6.636h1.75l.084.686a5.31 5.31 0 0 1 1.106-.504 6.414 6.414 0 0 1 1.316-.322v1.428a8.466 8.466 0 0 0-.826.168c-.299.075-.584.159-.854.252s-.5.191-.686.294V142h-1.89z" fill="#fff"/><path d="M42 21.315C42 12.857 48.857 6 57.315 6h150.74c8.458 0 15.315 6.857 15.315 15.315v69.47c0 8.459-6.857 15.315-15.315 15.315H57.315C48.857 106.1 42 99.244 42 90.785v-69.47z" fill="#060921" filter="url(#filter0_d_111_979)"/><path fill-rule="evenodd" clip-rule="evenodd" d="M208.055 10H57.315C51.066 10 46 15.066 46 21.315v69.47c0 6.25 5.066 11.315 11.315 11.315h150.74c6.249 0 11.315-5.066 11.315-11.315v-69.47c0-6.249-5.066-11.315-11.315-11.315zM57.315 6C48.857 6 42 12.857 42 21.315v69.47c0 8.459 6.857 15.315 15.315 15.315h150.74c8.458 0 15.315-6.856 15.315-15.315v-69.47C223.37 12.857 216.513 6 208.055 6H57.315z" fill="#F79824" filter="url(#filter1_d_111_979)"/><path d="M59.826 67.59V43.226H70.69c2.49 0 4.614.416 6.374 1.248 1.76.808 3.105 2.12 4.036 3.935.93 1.79 1.395 4.174 1.395 7.15 0 4.187-1.018 7.24-3.055 9.156-2.036 1.917-4.953 2.875-8.75 2.875H59.826zm7.091-5.448h2.867c1.181 0 2.175-.164 2.98-.492.804-.353 1.42-.996 1.847-1.929.428-.958.642-2.346.642-4.162 0-1.816-.202-3.215-.604-4.199-.377-1.009-.968-1.703-1.773-2.08-.804-.404-1.835-.606-3.092-.606h-2.867v13.468z" fill="url(#paint0_linear_111_979)"/><path d="M84.933 67.59V43.226h12.635c1.986 0 3.608.366 4.865 1.097a6.88 6.88 0 0 1 2.867 3.065c.629 1.286.943 2.787.943 4.502 0 1.64-.415 3.09-1.245 4.35a7.88 7.88 0 0 1-3.243 2.838c.276.227.515.504.716.832.201.303.428.732.679 1.287l2.791 6.393h-7.392l-2.565-5.864c-.201-.454-.453-.77-.755-.946-.276-.201-.678-.302-1.207-.302h-1.999v7.112h-7.09zm7.09-12.56h3.734c1.031 0 1.823-.265 2.377-.795.578-.555.867-1.337.867-2.345 0-2.144-1.006-3.216-3.017-3.216h-3.96v6.356z" fill="url(#paint1_linear_111_979)"/><path d="M108.676 67.59V43.226h7.091V67.59h-7.091z" fill="url(#paint2_linear_111_979)"/><path d="M118.657 67.59V43.226h11.984c2.068 2.971 4.237 6.041 8.892 11.857a8.558 8.558 0 0 1-.697 1.687 7.89 7.89 0 0 1-3.093 3.14c-1.333.757-2.904 1.135-4.715 1.135h-5.28v6.545h-7.091zm7.091-11.993h3.658c1.107 0 1.924-.315 2.452-.946.553-.63.83-1.45.83-2.459 0-1.084-.252-1.942-.754-2.572-.503-.63-1.283-.946-2.339-.946h-3.847v6.923z" fill="url(#paint3_linear_111_979)"/><path d="M142.625 56.101V43.226h18.358v5.297h-11.227v4.199h9.786v5.372h-9.786v7.218l-7.131-9.21zm20.262 11.49V43.225h18.509v5.448h-11.379v3.972h9.976v5.524h-9.976v3.972h11.379v5.448h-18.509zm19.968 0V43.225h10.924c2.503 0 4.64.416 6.41 1.248 1.77.808 3.123 2.12 4.059 3.935.935 1.79 1.403 4.174 1.403 7.15 0 4.187-1.024 7.24-3.072 9.156-2.049 1.917-4.982 2.875-8.8 2.875h-10.924zm7.131-5.449h2.883c1.188 0 2.187-.164 2.996-.492.809-.353 1.429-.996 1.859-1.929.429-.958.644-2.346.644-4.162 0-1.816-.202-3.215-.606-4.199-.38-1.009-.974-1.703-1.783-2.08-.809-.404-1.846-.606-3.11-.606h-2.883v13.468z" fill="#fff"/><g clip-path="url(#clip0_111_979)"><path d="M129.419 64.707c1.43-4.153 3.18-8.534 2.937-15.439-.014-2.535-2.127-5.83-2.236-6.094.077 0 .15.069.246.196l13.612 17.652c4.174 5.5.978 13.39-5.614 14.54-6.121 1.067-11.082-5.013-8.945-10.855z" fill="#F79824"/></g><path d="M178.531 74.565c-.695 0-1.241-.192-1.637-.577-.397-.391-.595-1.038-.595-1.94 0-.895.205-1.562.616-2.003.417-.44.973-.66 1.668-.66.619 0 1.154.157 1.606.472v-2.465h.855v7.068h-.73l-.063-.524a2.265 2.265 0 0 1-.761.482 2.828 2.828 0 0 1-.959.147zm.219-.692a2.1 2.1 0 0 0 .792-.147c.244-.098.459-.248.647-.45V70.57a1.856 1.856 0 0 0-.615-.357 2.226 2.226 0 0 0-.803-.136c-.549 0-.956.16-1.22.482-.265.315-.397.811-.397 1.49 0 .65.122 1.118.365 1.405.244.28.654.419 1.231.419zm6.084.692c-.883 0-1.544-.213-1.981-.64-.438-.426-.657-1.083-.657-1.971 0-.797.187-1.423.563-1.877.382-.462.983-.692 1.804-.692.486 0 .886.09 1.199.272.32.175.556.42.709.734.16.308.24.658.24 1.05v.932h-3.66c.027.378.107.675.239.892.14.216.345.374.616.472.278.09.643.136 1.095.136.507 0 .973-.087 1.397-.262v.671c-.216.09-.459.16-.73.21a4.574 4.574 0 0 1-.834.073zm-1.783-2.81h2.899v-.41c0-.405-.108-.716-.324-.933-.208-.223-.556-.335-1.042-.335-.591 0-.995.14-1.21.42-.216.279-.323.698-.323 1.258zm6.416 2.81c-.32 0-.626-.02-.918-.063a3.798 3.798 0 0 1-.719-.167v-.756c.236.084.483.147.74.19.264.041.525.062.782.062.438 0 .751-.045.939-.136.188-.098.281-.276.281-.535 0-.189-.052-.332-.156-.43-.097-.098-.25-.185-.459-.262a17.611 17.611 0 0 0-.782-.273 7.478 7.478 0 0 1-.761-.304 1.316 1.316 0 0 1-.522-.42c-.125-.181-.187-.422-.187-.723 0-.44.153-.776.459-1.007.306-.237.799-.356 1.48-.356.265 0 .518.02.762.063.243.035.455.08.636.136v.755a3.968 3.968 0 0 0-1.262-.22c-.431 0-.744.045-.939.136-.187.084-.281.245-.281.483 0 .16.042.29.125.388.09.09.226.17.407.24.187.064.427.144.719.242.383.119.692.241.928.367.237.126.41.28.522.461.111.182.167.42.167.713 0 .49-.171.85-.511 1.08-.341.224-.824.336-1.45.336zm3.366-6.24v-.786h.949v.787h-.949zm.083 6.135v-4.289h-.761l.083-.681h1.533v4.97h-.855zm4.248 1.846c-.368 0-.73-.021-1.084-.063a4.073 4.073 0 0 1-.897-.2v-.712c.278.09.591.16.938.21.348.048.682.073 1.001.073.522 0 .904-.032 1.148-.095.243-.062.365-.223.365-.482 0-.182-.067-.311-.199-.388-.125-.077-.351-.115-.677-.115h-1.314c-.911 0-1.366-.308-1.366-.923a1 1 0 0 1 .187-.577c.132-.189.327-.322.584-.398a1.375 1.375 0 0 1-.615-.577 1.894 1.894 0 0 1-.198-.891c0-.623.177-1.074.532-1.353.361-.287.91-.43 1.647-.43.153 0 .31.014.47.042.166.02.295.042.385.063h1.784l-.032.587h-.897c.16.133.275.294.345.482.069.182.104.385.104.609 0 .552-.16.982-.48 1.29-.32.3-.81.45-1.47.45-.111 0-.212-.003-.303-.01a6.382 6.382 0 0 0-.302-.042c-.215.007-.417.07-.605.189-.187.111-.281.258-.281.44 0 .119.045.206.135.262.098.056.271.084.522.084h1.366c.493 0 .872.102 1.136.304.265.196.397.486.397.87 0 .49-.202.83-.605 1.018-.403.189-.977.283-1.721.283zm.052-4.048c.494 0 .835-.08 1.022-.241.188-.16.282-.444.282-.85 0-.405-.101-.699-.303-.88-.194-.182-.528-.273-1.001-.273-.465 0-.803.087-1.011.262-.209.175-.313.472-.313.892 0 .384.097.664.292.838.202.168.546.252 1.032.252zm3.467 2.202v-4.97h.772l.052.566c.237-.196.511-.357.824-.483.32-.125.685-.188 1.095-.188.626 0 1.081.146 1.366.44.285.294.428.755.428 1.384v3.251h-.856v-3.22c0-.433-.086-.733-.26-.901-.174-.175-.508-.262-1.001-.262a2.25 2.25 0 0 0-.866.168 2.097 2.097 0 0 0-.698.461v3.754h-.856z" fill="#fff"/><defs><filter id="filter0_d_111_979" x="42" y="6" width="181.37" height="100.1" filterUnits="userSpaceOnUse" color-interpolation-filters="sRGB"><feFlood flood-opacity="0" result="BackgroundImageFix"/><feColorMatrix in="SourceAlpha" values="0 0 0 0 0 0 0 0 0 0 0 0 0 0 0 0 0 0 127 0" result="hardAlpha"/><feOffset/><feComposite in2="hardAlpha" operator="out"/><feColorMatrix values="0 0 0 0 0.0235294 0 0 0 0 0.0352941 0 0 0 0 0.129412 0 0 0 1 0"/><feBlend in2="BackgroundImageFix" result="effect1_dropShadow_111_979"/><feBlend in="SourceGraphic" in2="effect1_dropShadow_111_979" result="shape"/></filter><filter id="filter1_d_111_979" x="42" y="6" width="181.37" height="100.1" filterUnits="userSpaceOnUse" color-interpolation-filters="sRGB"><feFlood flood-opacity="0" result="BackgroundImageFix"/><feColorMatrix in="SourceAlpha" values="0 0 0 0 0 0 0 0 0 0 0 0 0 0 0 0 0 0 127 0" result="hardAlpha"/><feOffset/><feComposite in2="hardAlpha" operator="out"/><feColorMatrix values="0 0 0 0 0.0235294 0 0 0 0 0.0352941 0 0 0 0 0.129412 0 0 0 1 0"/><feBlend in2="BackgroundImageFix" result="effect1_dropShadow_111_979"/><feBlend in="SourceGraphic" in2="effect1_dropShadow_111_979" result="shape"/></filter><linearGradient id="paint0_linear_111_979" x1="128.462" y1="54.616" x2="135.494" y2="56.2" gradientUnits="userSpaceOnUse"><stop stop-color="#fff"/><stop offset="1" stop-color="#060921"/></linearGradient><linearGradient id="paint1_linear_111_979" x1="128.462" y1="54.616" x2="135.494" y2="56.2" gradientUnits="userSpaceOnUse"><stop stop-color="#fff"/><stop offset="1" stop-color="#060921"/></linearGradient><linearGradient id="paint2_linear_111_979" x1="128.462" y1="54.616" x2="135.494" y2="56.2" gradientUnits="userSpaceOnUse"><stop stop-color="#fff"/><stop offset="1" stop-color="#060921"/></linearGradient><linearGradient id="paint3_linear_111_979" x1="128.462" y1="54.616" x2="135.494" y2="56.2" gradientUnits="userSpaceOnUse"><stop stop-color="#fff"/><stop offset="1" stop-color="#060921"/></linearGradient><clipPath id="clip0_111_979"><path fill="#fff" transform="translate(128.759 43.226)" d="M0 0H22.185V42.192H0z"/></clipPath></defs></svg>