<svg viewBox="0 0 690 10" fill="none" xmlns="http://www.w3.org/2000/svg"><path fill-rule="evenodd" clip-rule="evenodd" d="M687.894.04a2 2 0 0 1 1.579 2.353L687.5 2c1.973.393 1.972.395 1.972.395v.002l-.001.005-.002.01-.007.03-.019.084a9.957 9.957 0 0 1-.35 1.118 10.755 10.755 0 0 1-1.379 2.539C686.298 8.1 683.824 10 679.853 10c-1.955 0-3.448-.465-4.654-1.289-1.07-.73-1.802-1.682-2.334-2.374l-.092-.12c-.59-.766-.994-1.249-1.54-1.6-.494-.319-1.256-.617-2.648-.617H2.012A2.006 2.006 0 0 1 0 2C0 .896.9 0 2.012 0h666.573c2.029 0 3.581.452 4.835 1.259 1.191.766 1.967 1.772 2.532 2.505l.015.02c.618.8.996 1.279 1.511 1.63.441.301 1.111.586 2.375.586 2.469 0 3.818-1.101 4.615-2.182a6.705 6.705 0 0 0 1.028-2.092 5.354 5.354 0 0 0 .033-.131 2.012 2.012 0 0 1 2.365-1.556z" fill="#E6E6E6"/></svg>