<svg viewBox="0 0 25 28" fill="none" xmlns="http://www.w3.org/2000/svg"><path d="M12.072 19.959v-8.552l-1.827.293V9.372l4.603-.69V19.96h-2.776z" fill="#19BB81"/><path d="M23.737 14.769c-.826-.129-1.56.45-1.678 1.273a9.734 9.734 0 0 1-2.706 5.46 9.482 9.482 0 0 1-13.588 0c-3.746-3.824-3.746-10.046 0-13.87a9.417 9.417 0 0 1 5.178-2.716 8.964 8.964 0 0 1 2.732-.084c1.311.154 2.532.599 3.646 1.25l3.735 2.41c.385-.067.73-.288.957-.615.227-.327.316-.732.25-1.127l-.884-5.266A1.477 1.477 0 0 0 19.672.252c-.804.14-1.345.92-1.207 1.742l.233 1.386c-1.43-.82-3.01-1.35-4.687-1.546-1.256-.146-2.474-.106-3.59.112-2.567.44-4.9 1.668-6.747 3.552-4.899 5-4.899 13.136 0 18.137 2.45 2.5 5.668 3.75 8.885 3.75 3.218 0 6.435-1.249 8.885-3.75a12.758 12.758 0 0 0 3.54-7.154c.119-.825-.44-1.592-1.247-1.712z" fill="#19BB81"/></svg>