<svg viewBox="0 0 20 21" fill="none" xmlns="http://www.w3.org/2000/svg"><path d="M12.532 10.12c1.143 0 2.073-.93 2.073-2.073V2.958c0-1.142-.93-2.072-2.073-2.072-1.143 0-2.073.93-2.073 2.072v5.089c0 1.143.93 2.073 2.073 2.073zm3.909 0h1.486C19.07 10.12 20 9.19 20 8.047c0-1.143-.93-2.073-2.073-2.073-1.143 0-2.072.93-2.072 2.073v1.487c0 .323.262.586.585.586zm-14.368.307H7.16c1.143 0 2.073-.93 2.073-2.073 0-1.143-.93-2.073-2.073-2.073H2.073C.93 6.281 0 7.211 0 8.354c0 1.143.93 2.073 2.073 2.073zM7.16 5.03h1.487a.586.586 0 0 0 .586-.586V2.958c0-1.142-.93-2.072-2.073-2.072-1.143 0-2.073.93-2.073 2.072 0 1.143.93 2.073 2.073 2.073zm.307 6.62c-1.143 0-2.073.93-2.073 2.074v5.088c0 1.143.93 2.073 2.073 2.073 1.143 0 2.073-.93 2.073-2.073v-5.088c0-1.143-.93-2.073-2.073-2.073zm-3.909 0H2.073C.93 11.652 0 12.582 0 13.726c0 1.143.93 2.072 2.073 2.072 1.143 0 2.072-.93 2.072-2.072v-1.487a.586.586 0 0 0-.586-.586zm14.368-.306H12.84c-1.143 0-2.073.93-2.073 2.073 0 1.142.93 2.072 2.073 2.072h5.088c1.143 0 2.073-.93 2.073-2.072 0-1.143-.93-2.073-2.073-2.073zM12.84 16.74h-1.487a.586.586 0 0 0-.586.586v1.487c0 1.143.93 2.073 2.073 2.073 1.143 0 2.073-.93 2.073-2.073 0-1.143-.93-2.073-2.073-2.073z" fill="#19BB81"/></svg>