<svg viewBox="0 0 25 28" fill="none" xmlns="http://www.w3.org/2000/svg"><path d="M8.797 19.959v-1.294a6.683 6.683 0 0 1 1.19-1.724 34.704 34.704 0 0 1 1.603-1.534c.529-.483.948-.868 1.259-1.155.31-.288.528-.564.655-.828.138-.264.207-.58.207-.948 0-.943-.61-1.414-1.828-1.414a5.74 5.74 0 0 0-1.396.172c-.46.104-.897.236-1.31.397V9.234c.447-.16.97-.293 1.568-.396.61-.104 1.213-.155 1.81-.155 1.3 0 2.288.327 2.966.982.678.655 1.017 1.575 1.017 2.759 0 .667-.155 1.247-.465 1.741-.31.483-.776.995-1.397 1.535-.46.39-.873.753-1.241 1.086a5.9 5.9 0 0 0-.914 1.034h4.12v2.139H8.798z" fill="#F79824"/><path d="M23.737 14.769c-.826-.129-1.56.45-1.678 1.273a9.734 9.734 0 0 1-2.706 5.46 9.482 9.482 0 0 1-13.588 0c-3.746-3.824-3.746-10.046 0-13.87a9.417 9.417 0 0 1 5.178-2.716 8.964 8.964 0 0 1 2.732-.084c1.311.154 2.532.599 3.646 1.25l3.735 2.41c.385-.067.73-.288.957-.615.227-.327.316-.732.25-1.127l-.884-5.266A1.477 1.477 0 0 0 19.672.252c-.804.14-1.345.92-1.207 1.742l.233 1.386c-1.43-.82-3.01-1.35-4.687-1.546-1.256-.146-2.474-.106-3.59.112-2.567.44-4.9 1.668-6.747 3.552-4.899 5-4.899 13.136 0 18.137 2.45 2.5 5.668 3.75 8.885 3.75 3.218 0 6.435-1.249 8.885-3.75a12.758 12.758 0 0 0 3.54-7.154c.119-.825-.44-1.592-1.247-1.712z" fill="#F79824"/></svg>