<svg viewBox="0 0 15 23" fill="none" xmlns="http://www.w3.org/2000/svg"><path d="M3.667 22.886a3.668 3.668 0 0 0 3.666-3.667v-3.666H3.667A3.668 3.668 0 0 0 0 19.219a3.668 3.668 0 0 0 3.667 3.667zM0 11.886a3.668 3.668 0 0 1 3.667-3.667h3.666v7.334H3.667A3.668 3.668 0 0 1 0 11.886zm0-7.334A3.668 3.668 0 0 1 3.667.886h3.666v7.333H3.667A3.668 3.668 0 0 1 0 4.552zM7.333.886H11a3.668 3.668 0 0 1 3.667 3.666A3.668 3.668 0 0 1 11 8.22H7.333V.886zm7.334 11A3.668 3.668 0 0 1 11 15.553a3.668 3.668 0 0 1-3.667-3.667A3.668 3.668 0 0 1 11 8.219a3.668 3.668 0 0 1 3.667 3.667z" fill="#19BB81"/></svg>