<svg viewBox="0 0 21 21" fill="none" xmlns="http://www.w3.org/2000/svg"><g clip-path="url(#clip0_117_2825)"><path d="M19.61 3.953a2.897 2.897 0 0 1 .003 4.112l-9.23 9.185c-.547.545-1.29.85-2.065.85-.828 0-1.575-.359-2.153-.934L1.779 12.8a3.072 3.072 0 0 1-.912-2.112 2.85 2.85 0 0 1 .834-2.08 2.878 2.878 0 0 1 2.09-.83c.79.015 1.554.341 2.123.907l2.402 2.391 7.161-7.127a2.933 2.933 0 0 1 4.132.003z" fill="#19BB81"/></g><defs><clipPath id="clip0_117_2825"><path fill="#fff" transform="translate(.667 .5)" d="M0 0H20V20H0z"/></clipPath></defs></svg>