<svg viewBox="0 0 110 84" fill="none" xmlns="http://www.w3.org/2000/svg"><path d="M61.016 54.945c0-11.698 4.774-23.493 14.322-35.383 9.55-11.89 18.525-17.836 26.928-17.836 5.156 0 7.734 2.206 7.734 6.616 0 3.644-3.628 9.206-10.885 16.685-2.674 2.877-5.157 6.425-7.448 10.644-2.101 4.22-3.151 8.63-3.151 13.233 0 4.411 1.527 8.726 4.583 12.945 3.246 4.028 4.87 7.576 4.87 10.644 0 2.877-1.242 5.562-3.724 8.055C91.953 82.849 88.993 84 85.365 84c-6.875 0-12.7-2.685-17.474-8.055-4.584-5.561-6.875-12.561-6.875-21zM0 54.945c0-12.082 5.156-24.26 15.469-36.534C25.972 6.137 34.757 0 41.823 0c5.156 0 7.734 2.205 7.734 6.616 0 2.302-1.91 5.658-5.729 10.069-3.628 4.22-7.352 9.205-11.172 14.959-3.628 5.562-5.442 11.027-5.442 16.397 0 5.37 1.623 10.069 4.87 14.096 3.246 4.027 4.87 7.48 4.87 10.356 0 2.877-1.242 5.562-3.725 8.055C30.938 82.849 27.882 84 24.063 84c-6.875 0-12.605-2.685-17.188-8.055C2.292 70.384 0 63.384 0 54.945z" fill="#19BB81"/></svg>