<svg viewBox="0 0 741 87" fill="none" xmlns="http://www.w3.org/2000/svg"><path fill-rule="evenodd" clip-rule="evenodd" d="M49.01 1.09c1.093 0 1.978.883 1.978 1.97v46.49c0 8.427-6.676 18.91-20.566 18.91-6.86 0-12.464-2.581-16.327-7.034-3.835-4.42-5.82-10.526-5.82-17.392 0-13.87 9.774-24.82 22.147-24.82 1.092 0 1.978.882 1.978 1.97 0 1.087-.886 1.97-1.978 1.97-9.774 0-18.193 8.748-18.193 20.88 0 6.135 1.772 11.258 4.858 14.816 3.059 3.525 7.54 5.67 13.335 5.67 11.422 0 16.611-8.426 16.611-14.97V3.06c0-1.087.886-1.97 1.978-1.97zm254.346 42.035c0 1.088-.885 1.97-1.977 1.97H254.71c-8.459 0-18.984-6.65-18.984-20.487 0-6.834 2.592-12.416 7.062-16.264 4.438-3.82 10.567-5.799 17.459-5.799 13.924 0 24.917 9.737 24.917 22.063 0 1.088-.886 1.97-1.978 1.97a1.973 1.973 0 0 1-1.977-1.97c0-9.737-8.783-18.123-20.962-18.123-6.159 0-11.302 1.765-14.873 4.84-3.539 3.046-5.693 7.51-5.693 13.283 0 11.378 8.46 16.547 15.029 16.547h46.669c1.092 0 1.977.882 1.977 1.97z" fill="#19BB81"/><path fill-rule="evenodd" clip-rule="evenodd" d="M111.492 37.151c1.092 0 1.978.882 1.978 1.97v29.154c0 7.156-1.944 12.71-6.259 15.614-4.311 2.9-10.244 2.657-17.008.009a1.967 1.967 0 0 1-1.117-2.554 1.98 1.98 0 0 1 2.564-1.113c6.287 2.461 10.637 2.217 13.346.394 2.705-1.821 4.519-5.717 4.519-12.35V39.121c0-1.088.885-1.97 1.977-1.97zm248.655 12.673a1.973 1.973 0 0 0 1.977-1.97V18.7c0-7.156-1.943-12.71-6.259-15.614-4.31-2.9-10.243-2.657-17.007-.009a1.966 1.966 0 0 0-1.117 2.554 1.98 1.98 0 0 0 2.563 1.113c6.288-2.461 10.637-2.217 13.347-.393 2.705 1.82 4.518 5.716 4.518 12.349v29.154c0 1.088.886 1.97 1.978 1.97z" fill="#FFA0AC"/><path fill-rule="evenodd" clip-rule="evenodd" d="M71.404 19.66a1.97 1.97 0 0 1-1.551-2.319l1.939.387c-1.94-.387-1.94-.388-1.939-.389v-.002l.002-.004.002-.012.006-.028a4.952 4.952 0 0 1 .086-.344 10.571 10.571 0 0 1 1.632-3.341c1.391-1.89 3.823-3.76 7.725-3.76 1.922 0 3.389.458 4.575 1.27 1.051.72 1.77 1.657 2.293 2.339.03.04.06.08.09.117.58.755.977 1.23 1.514 1.577.486.313 1.234.607 2.602.607h26.804c1.092 0 1.978.882 1.978 1.97s-.886 1.97-1.978 1.97H90.38c-1.993 0-3.52-.445-4.751-1.24-1.17-.755-1.933-1.745-2.489-2.467l-.014-.02c-.608-.789-.98-1.26-1.485-1.606-.433-.296-1.092-.577-2.335-.577-2.425 0-3.751 1.085-4.535 2.15a6.638 6.638 0 0 0-1.01 2.06 3.242 3.242 0 0 0-.03.115l-.003.014a1.977 1.977 0 0 1-2.324 1.532z" fill="#F79824"/><path fill-rule="evenodd" clip-rule="evenodd" d="M233.179 64.387a1.97 1.97 0 0 1-1.551-2.318l1.939.386c-1.939-.386-1.939-.387-1.939-.388v-.002l.001-.005.003-.011.006-.029.019-.083a9.743 9.743 0 0 1 .344-1.102c.256-.674.68-1.582 1.355-2.5 1.391-1.89 3.823-3.76 7.725-3.76 1.921 0 3.389.459 4.574 1.27 1.052.72 1.771 1.657 2.294 2.34l.09.117c.581.754.977 1.23 1.514 1.576.486.314 1.234.607 2.602.607h37.664c1.092 0 1.978.882 1.978 1.97s-.886 1.97-1.978 1.97h-37.664c-1.993 0-3.519-.445-4.752-1.24-1.17-.755-1.932-1.745-2.488-2.467l-.014-.019c-.608-.789-.98-1.26-1.485-1.606-.433-.297-1.092-.578-2.335-.578-2.426 0-3.751 1.085-4.535 2.15a6.629 6.629 0 0 0-1.01 2.06 5.074 5.074 0 0 0-.033.13 1.977 1.977 0 0 1-2.324 1.532z" fill="#FFA0AC"/><path fill-rule="evenodd" clip-rule="evenodd" d="M290.207 76.25a1.97 1.97 0 0 1 1.551 2.319l-1.939-.387c1.939.387 1.939.388 1.939.389l-.001.002-.001.005-.002.01-.006.03-.019.082a9.731 9.731 0 0 1-.344 1.102c-.256.675-.68 1.583-1.356 2.5-1.391 1.89-3.822 3.76-7.724 3.76-1.922 0-3.389-.458-4.575-1.27-1.051-.72-1.77-1.657-2.293-2.338l-.09-.118c-.581-.754-.977-1.23-1.514-1.577-.486-.313-1.234-.607-2.602-.607h-48.524a1.974 1.974 0 0 1-1.978-1.97c0-1.088.885-1.97 1.978-1.97h48.524c1.993 0 3.519.445 4.751 1.24 1.171.755 1.933 1.746 2.488 2.467l.015.02c.607.789.979 1.26 1.485 1.606.433.297 1.092.577 2.335.577 2.425 0 3.751-1.085 4.535-2.15a6.63 6.63 0 0 0 1.01-2.06c.015-.055.025-.095.029-.115l.004-.014a1.977 1.977 0 0 1 2.324-1.532z" fill="#19BB81"/><path fill-rule="evenodd" clip-rule="evenodd" d="M304.917 60.79c-1.259 1.836-2.88 4.2-1.567 7.603.469 1.216 1.513 2.18 3.01 2.862 1.237.563 2.675.88 4.048.974.069-.37.117-.775.177-1.271.051-.43.111-.927.199-1.528.365-2.485 1.178-6.181 4.592-8.223 1.462-.875 3.007-1.125 4.437-.745 1.399.373 2.482 1.295 3.164 2.392 1.341 2.159 1.336 5.418-1.216 7.512-1.234 1.012-1.722 2.108-2.181 3.53-.066.204-.133.424-.203.654-.404 1.322-.922 3.022-2.09 4.607-.661.898-.75 1.526-.721 1.861.028.327.18.574.412.749.497.375 1.314.404 1.905-.353.79-1.013.848-2.042.93-3.487.018-.321.038-.663.066-1.03.067-.84.219-2.14 1.12-3.168.979-1.116 2.41-1.47 3.95-1.47h34.892c1.092 0 1.977.882 1.977 1.97s-.885 1.97-1.977 1.97h-34.892c-.632 0-.892.092-.975.133-.024.054-.104.263-.152.872-.014.179-.022.39-.032.63-.058 1.452-.157 3.911-1.785 5.998-2.011 2.577-5.316 2.662-7.417 1.074a4.947 4.947 0 0 1-1.963-3.553c-.128-1.5.388-3.053 1.473-4.526.739-1.003 1.047-1.993 1.454-3.302.082-.265.168-.543.263-.836.55-1.702 1.337-3.646 3.431-5.364.775-.636.847-1.626.368-2.398-.229-.367-.53-.58-.822-.658-.26-.07-.71-.085-1.38.315-1.725 1.032-2.36 3.003-2.714 5.416-.05.34-.098.728-.147 1.126-.097.777-.198 1.595-.329 2.19-.106.476-.286 1.118-.673 1.674-.46.662-1.231 1.21-2.272 1.21-2.078 0-4.456-.403-6.562-1.363-2.109-.961-4.105-2.562-5.057-5.03-2.096-5.434.747-9.475 2.003-11.261.113-.16.213-.303.295-.426a1.983 1.983 0 0 1 2.743-.547 1.966 1.966 0 0 1 .549 2.731c-.106.158-.217.32-.331.486zm19.025 15.563l.017-.013c-.01.01-.016.013-.017.013zM124.153 9.886a1.977 1.977 0 0 1 2.327-1.545l-.388 1.932c.388-1.932.389-1.932.39-1.932h.002l.005.002.011.002.029.006.083.019c.067.016.155.037.261.067a10.626 10.626 0 0 1 3.355 1.626c1.897 1.386 3.774 3.808 3.774 7.695 0 1.914-.46 3.375-1.274 4.557-.723 1.047-1.664 1.763-2.348 2.284-.041.03-.08.06-.118.09-.757.578-1.235.973-1.583 1.508-.315.484-.609 1.23-.609 2.592v42.156c0 1.088-.886 1.97-1.978 1.97a1.973 1.973 0 0 1-1.977-1.97V28.789c0-1.986.446-3.506 1.244-4.733.758-1.166 1.752-1.925 2.477-2.479l.019-.014c.792-.605 1.265-.976 1.613-1.48.297-.431.579-1.087.579-2.325 0-2.416-1.089-3.737-2.158-4.518a6.674 6.674 0 0 0-2.068-1.006 3.039 3.039 0 0 0-.116-.03l-.014-.003a1.97 1.97 0 0 1-1.538-2.315z" fill="#89DAFF"/><path fill-rule="evenodd" clip-rule="evenodd" d="M79.808 62.483c8.525 0 15.437-6.884 15.437-15.377s-6.912-15.377-15.437-15.377c-8.526 0-15.437 6.884-15.437 15.377s6.911 15.377 15.437 15.377zm0 3.941c10.71 0 19.393-8.649 19.393-19.318 0-10.67-8.683-19.318-19.393-19.318s-19.393 8.649-19.393 19.318c0 10.67 8.682 19.318 19.393 19.318zM330.105 50.12c8.525 0 15.436-6.885 15.436-15.377 0-8.493-6.911-15.378-15.436-15.378-8.526 0-15.437 6.885-15.437 15.378 0 8.492 6.911 15.377 15.437 15.377zm0 3.94c10.71 0 19.393-8.648 19.393-19.318 0-10.669-8.683-19.318-19.393-19.318-10.711 0-19.393 8.65-19.393 19.319 0 10.669 8.682 19.318 19.393 19.318z" fill="#fff"/><path fill-rule="evenodd" clip-rule="evenodd" d="M205.907 37.733c-.564 1.991-.482 4.383.459 7.215.859 2.585 1.873 4.729 2.902 6.904l.258.546c1.108 2.346 2.216 4.77 2.979 7.666 1.663 6.314-1.353 12.795-6.901 15.695-2.982 1.56-6.595 1.455-9.662.336-3.071-1.121-5.92-3.379-7.221-6.554-1.249-3.048-1.45-5.907-.743-8.498.703-2.574 2.255-4.713 4.225-6.429 2.385-2.077 5.631-3.201 7.891-3.701a1.978 1.978 0 0 1 2.36 1.496 1.97 1.97 0 0 1-1.502 2.35c-1.958.434-4.47 1.364-6.145 2.822-1.525 1.328-2.558 2.834-3.011 4.496-.449 1.645-.38 3.614.588 5.975.785 1.916 2.631 3.507 4.919 4.343 2.292.836 4.702.796 6.463-.125 3.937-2.059 6.102-6.69 4.912-11.205-.663-2.519-1.632-4.659-2.732-6.99l-.267-.564c-1.02-2.156-2.132-4.504-3.069-7.325-1.127-3.392-1.338-6.605-.51-9.524.832-2.934 2.662-5.39 5.296-7.33 2.881-2.123 6.43-2.539 9.597-1.833 3.151.703 6.122 2.557 7.906 5.26 3.454 5.233 2.683 12.295-2.669 16.874-2.678 2.291-6.046 3.264-8.13 3.68a1.97 1.97 0 1 1-.778-3.864c1.83-.365 4.412-1.164 6.331-2.806 3.855-3.298 4.292-8.156 1.941-11.719-1.149-1.74-3.181-3.07-5.466-3.579-2.269-.506-4.59-.163-6.379 1.155-2.036 1.5-3.282 3.258-3.842 5.233z" fill="#F79824"/><path d="M59.897 79.818a4.13 4.13 0 0 1-4.137 4.121 4.13 4.13 0 0 1-4.137-4.12 4.13 4.13 0 0 1 4.137-4.122 4.13 4.13 0 0 1 4.137 4.121zm87.398-46.363c0 2.845-2.316 5.151-5.172 5.151s-5.171-2.306-5.171-5.151c0-2.846 2.315-5.152 5.171-5.152 2.856 0 5.172 2.306 5.172 5.152zm158.762-22.152a4.129 4.129 0 0 1-4.137 4.121 4.129 4.129 0 0 1-4.137-4.12 4.129 4.129 0 0 1 4.137-4.122 4.129 4.129 0 0 1 4.137 4.121zm46.026 49.97a3.097 3.097 0 0 1-3.103 3.09 3.097 3.097 0 0 1-3.103-3.09c0-1.707 1.39-3.091 3.103-3.091a3.097 3.097 0 0 1 3.103 3.09z" fill="#F79824"/><path fill-rule="evenodd" clip-rule="evenodd" d="M165.706 35.679c-1.751-2.543-4.239-6.154-2.261-11.278.747-1.934 2.385-3.399 4.589-4.402 2.021-.92 4.385-1.386 6.566-1.457.024.083.05.185.077.306.14.635.226 1.347.332 2.225.073.598.154 1.272.268 2.05.506 3.443 1.602 8.245 6.022 10.887 1.848 1.105 3.754 1.426 5.464.817 1.681-.597 2.788-1.957 3.339-3.43a7.562 7.562 0 0 0-3.182-9.022c-1.911-1.185-2.565-2.775-3.134-4.933-.075-.282-.148-.583-.225-.897-.48-1.959-1.094-4.466-2.89-6.512-1.132-1.29-1.466-2.338-1.495-3.04-.028-.686.224-1.179.561-1.495.638-.597 1.936-.832 3.056.602 1.259 1.613 1.351 3.31 1.463 5.348.023.432.048.88.084 1.345.091 1.16.297 2.735 1.37 3.959 1.151 1.311 2.872 1.78 4.912 1.78h20.08a1.974 1.974 0 0 0 1.978-1.97c0-1.088-.885-1.97-1.978-1.97h-20.08c-1.52 0-1.864-.353-1.934-.433-.147-.168-.317-.554-.405-1.674-.022-.278-.035-.597-.05-.947-.088-2.042-.221-5.171-2.318-7.856-2.5-3.202-6.492-3.297-8.886-1.055-1.179 1.104-1.879 2.705-1.805 4.528.075 1.808.899 3.683 2.47 5.472 1.113 1.268 1.484 2.736 1.986 4.72.088.35.18.714.281 1.097.643 2.438 1.64 5.274 4.87 7.276 1.686 1.044 2.064 2.967 1.565 4.3-.24.641-.616.974-.963 1.097-.316.113-.981.183-2.099-.485-2.73-1.632-3.649-4.71-4.143-8.078a76.132 76.132 0 0 1-.216-1.648c-.13-1.053-.261-2.114-.437-2.908-.141-.637-.366-1.41-.816-2.056-.524-.753-1.376-1.35-2.525-1.35-2.801 0-5.995.543-8.807 1.824-2.815 1.282-5.405 3.384-6.636 6.57-2.762 7.155.948 12.445 2.699 14.94.158.227.301.43.421.61a1.982 1.982 0 0 0 2.742.545 1.965 1.965 0 0 0 .548-2.731 43.974 43.974 0 0 0-.458-.671z" fill="#89DAFF"/><path fill-rule="evenodd" clip-rule="evenodd" d="M139.414 70.198c-1.578-8.715 3.204-16.202 9.745-19.15 3.276-1.475 6.214-1.582 8.274.31 1.835 1.685 2.271 4.4 2.271 6.674V72.73c0 1.088-.885 1.97-1.977 1.97a1.974 1.974 0 0 1-1.978-1.97V58.031c0-2.049-.45-3.275-.997-3.776-.321-.295-1.26-.834-3.963.383-4.973 2.241-8.723 8.012-7.483 14.86.67 3.7 2.481 6.479 5.149 8.362 2.699 1.906 6.413 2.988 10.994 2.988 8.765 0 14.009-5.906 14.995-11.35.548-3.026.461-5.642-.318-8.05-.779-2.41-2.299-4.76-4.844-7.18a1.965 1.965 0 0 1-.065-2.785 1.983 1.983 0 0 1 2.796-.064c2.91 2.767 4.853 5.656 5.877 8.82 1.024 3.165 1.08 6.458.446 9.959-1.311 7.237-8.126 14.59-18.887 14.59-5.181 0-9.754-1.224-13.281-3.714-3.558-2.511-5.91-6.217-6.754-10.876zm552.575 15.711a1.973 1.973 0 0 1-1.977-1.97V37.45c0-8.427 6.676-18.91 20.566-18.91 6.86 0 12.464 2.581 16.327 7.034 3.835 4.42 5.821 10.526 5.821 17.392 0 13.87-9.775 24.82-22.148 24.82a1.974 1.974 0 0 1-1.978-1.97c0-1.088.886-1.97 1.978-1.97 9.774 0 18.193-8.748 18.193-20.88 0-6.135-1.772-11.259-4.858-14.816-3.059-3.525-7.54-5.67-13.335-5.67-11.422 0-16.611 8.426-16.611 14.97v46.49c0 1.087-.886 1.97-1.978 1.97zM437.644 43.875c0-1.088.885-1.97 1.977-1.97h46.669c8.459 0 18.984 6.65 18.984 20.487 0 6.834-2.592 12.416-7.062 16.264-4.438 3.82-10.567 5.799-17.459 5.799-13.924 0-24.917-9.737-24.917-22.063 0-1.088.886-1.97 1.978-1.97s1.977.882 1.977 1.97c0 9.737 8.783 18.123 20.962 18.123 6.159 0 11.302-1.765 14.873-4.84 3.539-3.046 5.693-7.51 5.693-13.283 0-11.378-8.46-16.547-15.029-16.547h-46.669a1.973 1.973 0 0 1-1.977-1.97z" fill="#19BB81"/><path fill-rule="evenodd" clip-rule="evenodd" d="M629.508 49.849a1.974 1.974 0 0 1-1.978-1.97V18.725c0-7.156 1.944-12.71 6.259-15.614 4.311-2.9 10.244-2.657 17.008-.009a1.966 1.966 0 0 1 1.117 2.554 1.98 1.98 0 0 1-2.564 1.113c-6.287-2.461-10.637-2.217-13.346-.393-2.705 1.82-4.519 5.716-4.519 12.349v29.154c0 1.088-.885 1.97-1.977 1.97zM380.853 37.176a1.973 1.973 0 0 0-1.977 1.97V68.3c0 7.156 1.943 12.71 6.259 15.614 4.31 2.9 10.243 2.657 17.007.009a1.967 1.967 0 0 0 1.117-2.554 1.98 1.98 0 0 0-2.563-1.113c-6.288 2.461-10.637 2.217-13.347.393-2.705-1.82-4.518-5.716-4.518-12.349V39.146c0-1.088-.886-1.97-1.978-1.97z" fill="#FFA0AC"/><path fill-rule="evenodd" clip-rule="evenodd" d="M669.596 67.34a1.97 1.97 0 0 1 1.551 2.319l-1.939-.387c1.939.387 1.939.388 1.939.389l-.001.002-.001.004-.002.012-.006.028-.019.083a9.743 9.743 0 0 1-.344 1.102c-.256.675-.68 1.582-1.355 2.5-1.392 1.89-3.823 3.76-7.725 3.76-1.921 0-3.389-.458-4.575-1.27-1.051-.72-1.77-1.657-2.293-2.339a14.77 14.77 0 0 1-.09-.117c-.581-.755-.977-1.23-1.514-1.577-.486-.313-1.234-.607-2.602-.607h-26.804a1.974 1.974 0 0 1-1.978-1.97c0-1.088.886-1.97 1.978-1.97h26.804c1.993 0 3.519.445 4.751 1.24 1.171.755 1.933 1.745 2.488 2.467l.015.02c.608.789.98 1.26 1.485 1.606.433.296 1.092.577 2.335.577 2.425 0 3.751-1.085 4.535-2.15a6.633 6.633 0 0 0 1.01-2.06c.015-.055.025-.095.029-.115l.004-.014a1.977 1.977 0 0 1 2.324-1.532z" fill="#F79824"/><path fill-rule="evenodd" clip-rule="evenodd" d="M507.821 22.613a1.97 1.97 0 0 1 1.551 2.318l-1.939-.386c1.939.386 1.939.387 1.939.388v.002l-.001.005-.003.011-.006.029-.019.083a9.743 9.743 0 0 1-.344 1.102c-.256.674-.68 1.582-1.355 2.5-1.391 1.89-3.823 3.76-7.725 3.76-1.921 0-3.389-.459-4.574-1.27-1.052-.72-1.771-1.657-2.294-2.34l-.09-.117c-.581-.754-.977-1.23-1.514-1.576-.486-.314-1.234-.607-2.602-.607h-37.664a1.974 1.974 0 0 1-1.978-1.97c0-1.088.886-1.97 1.978-1.97h37.664c1.993 0 3.519.445 4.752 1.24 1.17.755 1.932 1.745 2.488 2.467l.014.019c.608.789.98 1.26 1.485 1.606.433.297 1.092.578 2.335.578 2.426 0 3.751-1.085 4.535-2.15a6.629 6.629 0 0 0 1.01-2.06 5.074 5.074 0 0 0 .033-.13 1.977 1.977 0 0 1 2.324-1.532z" fill="#FFA0AC"/><path fill-rule="evenodd" clip-rule="evenodd" d="M450.793 10.75a1.97 1.97 0 0 1-1.551-2.319l1.939.387c-1.939-.387-1.939-.388-1.939-.389l.001-.002.001-.005.002-.01.006-.03.019-.082a9.736 9.736 0 0 1 .344-1.102c.256-.675.68-1.582 1.356-2.5 1.391-1.89 3.822-3.76 7.724-3.76 1.922 0 3.389.458 4.575 1.27 1.051.72 1.77 1.657 2.293 2.339l.09.117c.581.754.977 1.23 1.514 1.577.486.313 1.234.607 2.602.607h48.524c1.093 0 1.978.882 1.978 1.97s-.885 1.97-1.978 1.97h-48.524c-1.993 0-3.519-.446-4.751-1.24-1.171-.755-1.933-1.746-2.488-2.467l-.015-.02c-.607-.789-.979-1.26-1.485-1.606-.433-.297-1.092-.577-2.335-.577-2.425 0-3.751 1.085-4.535 2.15a6.631 6.631 0 0 0-1.01 2.06 2.085 2.085 0 0 0-.029.115l-.004.014a1.977 1.977 0 0 1-2.324 1.532z" fill="#19BB81"/><path fill-rule="evenodd" clip-rule="evenodd" d="M436.083 26.21c1.259-1.836 2.88-4.2 1.567-7.603-.469-1.216-1.513-2.18-3.01-2.862-1.237-.563-2.675-.88-4.048-.974-.069.37-.117.775-.177 1.271-.051.43-.111.927-.199 1.528-.365 2.485-1.178 6.181-4.592 8.223-1.462.875-3.007 1.125-4.437.745-1.399-.373-2.482-1.295-3.164-2.392-1.341-2.159-1.336-5.418 1.216-7.512 1.234-1.012 1.722-2.107 2.181-3.53.066-.204.133-.424.203-.654.404-1.322.922-3.022 2.09-4.607.661-.898.75-1.526.721-1.861a1.013 1.013 0 0 0-.412-.749c-.497-.375-1.314-.404-1.905.353-.79 1.013-.848 2.042-.93 3.487-.018.321-.038.663-.066 1.03-.067.84-.219 2.14-1.12 3.168-.979 1.116-2.41 1.47-3.95 1.47h-34.892a1.973 1.973 0 0 1-1.977-1.97c0-1.088.885-1.97 1.977-1.97h34.892c.632 0 .892-.092.975-.133.024-.054.104-.263.152-.872.014-.179.022-.39.032-.629.058-1.453.157-3.912 1.785-5.999 2.011-2.577 5.316-2.662 7.417-1.074a4.947 4.947 0 0 1 1.963 3.554c.128 1.499-.388 3.052-1.473 4.526-.739 1.002-1.047 1.992-1.454 3.301-.082.265-.168.543-.263.836-.55 1.702-1.337 3.646-3.431 5.364-.775.636-.847 1.626-.368 2.398.229.367.53.58.822.658.26.07.71.085 1.38-.315 1.725-1.032 2.36-3.003 2.714-5.416.05-.34.098-.728.147-1.126.097-.777.198-1.595.329-2.19.106-.476.286-1.118.673-1.674.46-.662 1.231-1.21 2.272-1.21 2.078 0 4.456.403 6.562 1.363 2.109.961 4.105 2.562 5.057 5.03 2.096 5.434-.747 9.475-2.003 11.261-.113.16-.213.303-.295.426a1.983 1.983 0 0 1-2.743.547 1.966 1.966 0 0 1-.549-2.731c.106-.158.217-.32.331-.486zm-19.025-15.563l-.017.013c.01-.01.016-.013.017-.012zm199.789 66.467a1.977 1.977 0 0 1-2.327 1.545l.388-1.931a185.03 185.03 0 0 1-.39 1.93h-.007l-.011-.003-.029-.006a4.82 4.82 0 0 1-.344-.086 10.627 10.627 0 0 1-3.355-1.626c-1.897-1.386-3.774-3.808-3.774-7.695 0-1.914.46-3.375 1.274-4.557.723-1.047 1.664-1.763 2.348-2.284.041-.03.08-.06.118-.09.757-.578 1.235-.973 1.583-1.508.315-.484.609-1.23.609-2.592V16.055c0-1.088.886-1.97 1.978-1.97s1.977.882 1.977 1.97v42.156c0 1.986-.446 3.506-1.244 4.733-.758 1.166-1.752 1.925-2.477 2.478l-.019.015c-.792.605-1.265.976-1.613 1.48-.297.431-.579 1.087-.579 2.325 0 2.416 1.089 3.737 2.158 4.518a6.674 6.674 0 0 0 2.068 1.006l.116.03.014.003a1.97 1.97 0 0 1 1.538 2.315z" fill="#89DAFF"/><path fill-rule="evenodd" clip-rule="evenodd" d="M661.192 24.517c-8.525 0-15.437 6.884-15.437 15.377s6.912 15.377 15.437 15.377c8.526 0 15.437-6.884 15.437-15.377s-6.911-15.377-15.437-15.377zm0-3.941c-10.71 0-19.393 8.649-19.393 19.318 0 10.67 8.683 19.318 19.393 19.318s19.393-8.649 19.393-19.318c0-10.67-8.683-19.318-19.393-19.318zM410.895 36.88c-8.525 0-15.436 6.885-15.436 15.377 0 8.493 6.911 15.378 15.436 15.378 8.526 0 15.437-6.885 15.437-15.378 0-8.492-6.911-15.377-15.437-15.377zm0-3.94c-10.71 0-19.393 8.648-19.393 19.318 0 10.669 8.683 19.318 19.393 19.318 10.711 0 19.393-8.65 19.393-19.318 0-10.67-8.682-19.319-19.393-19.319z" fill="#fff"/><path fill-rule="evenodd" clip-rule="evenodd" d="M535.093 49.267c.564-1.991.482-4.383-.459-7.215-.859-2.585-1.873-4.729-2.902-6.904l-.258-.546c-1.108-2.346-2.216-4.77-2.979-7.666-1.663-6.314 1.353-12.795 6.901-15.695 2.982-1.56 6.595-1.455 9.662-.336 3.071 1.121 5.92 3.379 7.221 6.554 1.249 3.048 1.45 5.907.743 8.498-.703 2.574-2.255 4.713-4.225 6.429-2.385 2.077-5.631 3.201-7.891 3.701a1.978 1.978 0 0 1-2.36-1.496 1.97 1.97 0 0 1 1.502-2.35c1.958-.434 4.47-1.364 6.145-2.822 1.525-1.328 2.558-2.834 3.011-4.496.449-1.644.38-3.614-.588-5.975-.785-1.916-2.631-3.508-4.919-4.343-2.292-.836-4.702-.796-6.463.125-3.937 2.059-6.102 6.69-4.912 11.206.663 2.518 1.632 4.658 2.732 6.99l.267.563c1.02 2.156 2.132 4.504 3.069 7.325 1.127 3.392 1.338 6.605.51 9.524-.832 2.934-2.662 5.39-5.296 7.33-2.881 2.123-6.43 2.539-9.597 1.833-3.151-.703-6.122-2.557-7.906-5.26-3.454-5.233-2.683-12.295 2.669-16.874 2.678-2.291 6.046-3.264 8.13-3.68a1.97 1.97 0 1 1 .778 3.864c-1.83.365-4.412 1.164-6.331 2.806-3.855 3.298-4.292 8.156-1.941 11.719 1.149 1.74 3.181 3.07 5.466 3.579 2.269.506 4.59.163 6.379-1.155 2.036-1.5 3.282-3.258 3.842-5.233z" fill="#F79824"/><path d="M681.103 7.182a4.129 4.129 0 0 1 4.137-4.121 4.129 4.129 0 0 1 4.137 4.12 4.129 4.129 0 0 1-4.137 4.122 4.129 4.129 0 0 1-4.137-4.121zm-87.398 46.363c0-2.845 2.316-5.151 5.172-5.151s5.171 2.306 5.171 5.151c0 2.846-2.315 5.152-5.171 5.152-2.856 0-5.172-2.306-5.172-5.152zM434.943 75.697a4.129 4.129 0 0 1 4.137-4.121 4.129 4.129 0 0 1 4.137 4.12 4.129 4.129 0 0 1-4.137 4.122 4.129 4.129 0 0 1-4.137-4.121zm-46.026-49.97a3.097 3.097 0 0 1 3.103-3.09 3.097 3.097 0 0 1 3.103 3.09c0 1.707-1.39 3.091-3.103 3.091a3.097 3.097 0 0 1-3.103-3.09z" fill="#F79824"/><path fill-rule="evenodd" clip-rule="evenodd" d="M575.294 51.321c1.751 2.543 4.239 6.154 2.261 11.278-.747 1.934-2.385 3.399-4.589 4.402-2.021.92-4.385 1.386-6.566 1.457a5.311 5.311 0 0 1-.077-.306c-.14-.635-.226-1.347-.332-2.225-.073-.598-.154-1.272-.268-2.05-.506-3.443-1.602-8.245-6.022-10.887-1.848-1.105-3.754-1.426-5.464-.817-1.681.597-2.788 1.957-3.339 3.43a7.562 7.562 0 0 0 3.182 9.022c1.911 1.185 2.565 2.775 3.134 4.933.075.282.148.583.225.897.48 1.959 1.094 4.466 2.89 6.511 1.132 1.29 1.466 2.34 1.495 3.04.028.687-.224 1.18-.561 1.496-.638.597-1.936.832-3.056-.602-1.259-1.613-1.351-3.31-1.463-5.348a55.42 55.42 0 0 0-.084-1.345c-.091-1.16-.297-2.735-1.37-3.959-1.151-1.311-2.872-1.78-4.912-1.78h-20.08a1.974 1.974 0 0 0-1.978 1.97c0 1.088.885 1.97 1.978 1.97h20.08c1.52 0 1.864.353 1.934.433.147.168.317.554.405 1.674.022.278.035.597.05.947.088 2.042.221 5.171 2.318 7.856 2.5 3.202 6.492 3.297 8.886 1.055 1.179-1.104 1.879-2.705 1.805-4.528-.075-1.808-.899-3.683-2.47-5.472-1.113-1.268-1.484-2.736-1.986-4.72-.088-.35-.18-.714-.281-1.097-.643-2.438-1.64-5.274-4.87-7.276-1.686-1.044-2.064-2.967-1.565-4.3.24-.641.616-.974.963-1.097.316-.113.981-.183 2.099.485 2.73 1.632 3.649 4.71 4.143 8.078.076.519.146 1.082.216 1.648.13 1.053.261 2.114.437 2.908.141.637.366 1.41.816 2.056.524.753 1.376 1.35 2.525 1.35 2.801 0 5.995-.543 8.807-1.824 2.815-1.282 5.405-3.384 6.636-6.57 2.762-7.155-.948-12.445-2.699-14.94-.158-.227-.301-.43-.421-.61a1.982 1.982 0 0 0-2.742-.545 1.965 1.965 0 0 0-.548 2.731c.143.215.297.439.458.671z" fill="#89DAFF"/><path fill-rule="evenodd" clip-rule="evenodd" d="M601.586 16.802c1.578 8.715-3.204 16.202-9.745 19.15-3.276 1.475-6.214 1.582-8.274-.31-1.835-1.685-2.271-4.4-2.271-6.674V14.27c0-1.088.885-1.97 1.977-1.97 1.093 0 1.978.882 1.978 1.97v14.698c0 2.05.45 3.276.997 3.777.321.295 1.26.834 3.963-.383 4.973-2.241 8.723-8.012 7.483-14.86-.67-3.7-2.481-6.479-5.149-8.362-2.699-1.906-6.413-2.988-10.994-2.988-8.765 0-14.009 5.906-14.995 11.35-.548 3.027-.461 5.642.318 8.05.779 2.41 2.299 4.76 4.844 7.18.79.75.819 1.998.065 2.785a1.983 1.983 0 0 1-2.796.064c-2.91-2.767-4.853-5.656-5.877-8.82-1.024-3.165-1.08-6.458-.446-9.959 1.311-7.237 8.126-14.59 18.887-14.59 5.181 0 9.754 1.224 13.281 3.714 3.558 2.511 5.91 6.217 6.754 10.876z" fill="#19BB81"/></svg>