<svg viewBox="0 0 701 166" fill="none" xmlns="http://www.w3.org/2000/svg"><path fill-rule="evenodd" clip-rule="evenodd" d="M94.772.176A3.824 3.824 0 0 1 98.596 4v90.244c0 16.358-12.91 36.709-39.769 36.709-13.265 0-24.102-5.012-31.572-13.656C19.84 108.716 16 96.865 16 83.537c0-26.925 18.901-48.181 42.827-48.181a3.824 3.824 0 1 1 0 7.648c-18.9 0-35.18 16.983-35.18 40.533 0 11.91 3.427 21.854 9.395 28.76 5.913 6.843 14.578 11.008 25.785 11.008 22.088 0 32.121-16.358 32.121-29.061V4A3.824 3.824 0 0 1 94.772.176zM586.6 81.772a3.824 3.824 0 0 1-3.824 3.824h-90.244c-16.358 0-36.709-12.91-36.709-39.769 0-13.265 5.012-24.102 13.656-31.572C478.061 6.84 489.912 3 503.24 3c26.925 0 48.181 18.901 48.181 42.827a3.824 3.824 0 1 1-7.648 0c0-18.9-16.983-35.18-40.533-35.18-11.91 0-21.854 3.427-28.76 9.394-6.843 5.914-11.008 14.58-11.008 25.786 0 22.088 16.358 32.121 29.061 32.121h90.244a3.824 3.824 0 0 1 3.824 3.824z" fill="#444"/><path fill-rule="evenodd" clip-rule="evenodd" d="M215.592 70.176A3.824 3.824 0 0 1 219.416 74v56.593c0 13.891-3.759 24.672-12.103 30.309-8.335 5.631-19.808 5.158-32.888.017a3.825 3.825 0 0 1 2.798-7.118c12.157 4.778 20.569 4.305 25.808.764 5.231-3.534 8.737-11.096 8.737-23.972V74a3.824 3.824 0 0 1 3.824-3.824zm480.825 24.6a3.824 3.824 0 0 0 3.824-3.824V34.36c0-13.891-3.759-24.672-12.103-30.31-8.335-5.63-19.808-5.157-32.888-.016a3.823 3.823 0 1 0 2.797 7.118c12.158-4.778 20.569-4.305 25.809-.764 5.231 3.534 8.737 11.096 8.737 23.972v56.593a3.824 3.824 0 0 0 3.824 3.824z" fill="#FFA0AC"/><path fill-rule="evenodd" clip-rule="evenodd" d="M138.074 36.22a3.823 3.823 0 0 1-2.999-4.499l3.749.75c-3.749-.75-3.749-.752-3.749-.753l.001-.005.002-.009.004-.021.012-.056.037-.161c.03-.129.073-.3.13-.506a20.544 20.544 0 0 1 3.156-6.486c2.69-3.668 7.392-7.298 14.938-7.298 3.715 0 6.552.89 8.845 2.464 2.034 1.397 3.424 3.217 4.435 4.54l.175.229c1.122 1.464 1.888 2.388 2.927 3.06.939.608 2.386 1.178 5.032 1.178H226.6a3.824 3.824 0 0 1 0 7.648h-51.831c-3.856 0-6.806-.864-9.189-2.406-2.263-1.466-3.737-3.388-4.811-4.79l-.029-.037c-1.174-1.532-1.893-2.447-2.871-3.118-.838-.576-2.111-1.12-4.514-1.12-4.691 0-7.254 2.105-8.771 4.173a12.901 12.901 0 0 0-1.952 4 6.371 6.371 0 0 0-.057.222l-.006.028a3.824 3.824 0 0 1-4.495 2.974z" fill="#F79824"/><path fill-rule="evenodd" clip-rule="evenodd" d="M450.898 123.045a3.824 3.824 0 0 1-2.999-4.499l3.749.75c-3.749-.75-3.749-.752-3.748-.754v-.004l.002-.01.005-.021.012-.056.036-.161c.03-.129.073-.299.13-.505a20.549 20.549 0 0 1 3.156-6.487c2.69-3.668 7.392-7.298 14.938-7.298 3.715 0 6.552.889 8.845 2.465 2.034 1.397 3.424 3.216 4.435 4.54l.175.228c1.122 1.464 1.889 2.388 2.927 3.06.939.608 2.386 1.179 5.032 1.179h72.831a3.824 3.824 0 1 1 0 7.647h-72.831c-3.855 0-6.806-.863-9.189-2.406-2.263-1.466-3.737-3.388-4.811-4.789l-.029-.038c-1.174-1.531-1.893-2.446-2.87-3.118-.838-.576-2.112-1.12-4.515-1.12-4.691 0-7.254 2.105-8.77 4.173a12.927 12.927 0 0 0-1.634 3.033 10.99 10.99 0 0 0-.376 1.189l-.006.028a3.824 3.824 0 0 1-4.495 2.974z" fill="#FFA0AC"/><path fill-rule="evenodd" clip-rule="evenodd" d="M561.173 146.075a3.824 3.824 0 0 1 3 4.5l-3.75-.75c3.75.75 3.75.751 3.749.753l-.001.005-.001.009-.005.021-.012.056a15.542 15.542 0 0 1-.166.667 20.521 20.521 0 0 1-3.157 6.486c-2.69 3.668-7.392 7.298-14.937 7.298-3.715 0-6.553-.889-8.845-2.464-2.034-1.398-3.424-3.217-4.435-4.54l-.175-.229c-1.122-1.464-1.889-2.388-2.927-3.06-.94-.608-2.387-1.179-5.032-1.179h-93.831a3.824 3.824 0 1 1 0-7.647h93.831c3.855 0 6.806.863 9.188 2.406 2.264 1.466 3.738 3.388 4.812 4.789l.028.038c1.175 1.532 1.894 2.447 2.871 3.118.838.576 2.111 1.12 4.515 1.12 4.69 0 7.254-2.105 8.77-4.173a12.908 12.908 0 0 0 1.634-3.033c.156-.415.259-.751.318-.966.03-.108.048-.184.058-.223l.006-.028a3.824 3.824 0 0 1 4.494-2.974z" fill="#444"/><path fill-rule="evenodd" clip-rule="evenodd" d="M589.618 116.064c-2.434 3.563-5.57 8.151-3.03 14.758.907 2.36 2.925 4.23 5.821 5.555 2.391 1.094 5.173 1.709 7.827 1.892.133-.719.227-1.506.342-2.468.1-.834.215-1.8.386-2.966.705-4.825 2.276-11.999 8.879-15.963 2.826-1.697 5.815-2.184 8.58-1.445 2.704.723 4.799 2.512 6.117 4.642 2.594 4.191 2.584 10.519-2.351 14.583-2.385 1.965-3.329 4.091-4.217 6.851-.128.398-.257.824-.393 1.272-.78 2.564-1.783 5.865-4.04 8.942-1.28 1.744-1.451 2.962-1.395 3.612.054.636.348 1.114.796 1.454.961.729 2.542.784 3.684-.685 1.528-1.967 1.641-3.964 1.799-6.769.035-.624.073-1.287.128-2 .128-1.631.423-4.153 2.166-6.148 1.892-2.168 4.659-2.854 7.637-2.854h67.47a3.824 3.824 0 1 1 0 7.648h-67.47c-1.222 0-1.725.177-1.885.258-.047.104-.201.511-.293 1.693-.027.346-.044.757-.062 1.221-.113 2.82-.304 7.594-3.452 11.644-3.889 5.004-10.28 5.168-14.344 2.085a9.612 9.612 0 0 1-3.794-6.897c-.248-2.911.75-5.926 2.848-8.786 1.428-1.947 2.024-3.868 2.811-6.41.159-.513.326-1.052.509-1.622 1.063-3.303 2.586-7.077 6.635-10.412 1.499-1.234 1.638-3.157.711-4.654-.442-.714-1.025-1.128-1.59-1.279-.503-.135-1.373-.165-2.669.613-3.334 2.002-4.563 5.828-5.248 10.512-.096.661-.189 1.413-.284 2.186-.186 1.508-.382 3.096-.637 4.25-.204.925-.552 2.172-1.299 3.251-.891 1.285-2.382 2.347-4.394 2.347-4.019 0-8.616-.781-12.689-2.644-4.079-1.866-7.937-4.974-9.779-9.765-4.054-10.547 1.444-18.392 3.874-21.86.218-.311.411-.587.571-.826a3.823 3.823 0 1 1 6.364 4.24c-.204.307-.419.621-.64.944zm36.79 30.209c-.001-.001.008-.01.033-.024-.02.018-.032.025-.033.024zM240.075 17.25a3.823 3.823 0 0 1 4.499-3l-.75 3.75c.75-3.75.752-3.75.754-3.75l.004.002.009.002.022.004.056.012.161.036c.128.03.299.073.505.13.412.114.973.287 1.633.536a20.54 20.54 0 0 1 4.853 2.62c3.668 2.69 7.299 7.393 7.299 14.938 0 3.715-.89 6.553-2.465 8.846-1.397 2.033-3.216 3.423-4.54 4.434l-.228.175c-1.464 1.122-2.388 1.889-3.061 2.927-.608.94-1.178 2.387-1.178 5.032v81.831a3.824 3.824 0 1 1-7.648 0v-81.83c0-3.856.864-6.806 2.407-9.19 1.465-2.263 3.388-3.736 4.789-4.81l.037-.03c1.532-1.173 2.447-1.893 3.119-2.87.575-.838 1.12-2.111 1.12-4.515 0-4.69-2.106-7.254-4.173-8.77a12.893 12.893 0 0 0-4-1.952 5.784 5.784 0 0 0-.223-.058l-.027-.006a3.823 3.823 0 0 1-2.974-4.494z" fill="#89DAFF"/><path fill-rule="evenodd" clip-rule="evenodd" d="M154.324 119.35c16.486 0 29.85-13.365 29.85-29.85 0-16.486-13.364-29.85-29.85-29.85-16.485 0-29.85 13.364-29.85 29.85 0 16.485 13.365 29.85 29.85 29.85zm0 7.65c20.711 0 37.5-16.79 37.5-37.5S175.035 52 154.324 52c-20.71 0-37.5 16.79-37.5 37.5s16.79 37.5 37.5 37.5zm484-31.65c16.485 0 29.85-13.364 29.85-29.85s-13.365-29.85-29.85-29.85c-16.486 0-29.85 13.364-29.85 29.85s13.364 29.85 29.85 29.85zm0 7.65c20.71 0 37.5-16.79 37.5-37.5s-16.79-37.5-37.5-37.5c-20.711 0-37.5 16.79-37.5 37.5s16.789 37.5 37.5 37.5z" fill="#fff"/><path fill-rule="evenodd" clip-rule="evenodd" d="M398.163 71.305c-1.092 3.865-.933 8.508.887 14.006 1.66 5.018 3.622 9.18 5.612 13.402.166.353.333.705.499 1.06 2.141 4.554 4.284 9.258 5.76 14.881 3.216 12.257-2.617 24.836-13.344 30.467-5.766 3.026-12.754 2.824-18.684.652-5.939-2.176-11.448-6.559-13.963-12.723-2.415-5.917-2.805-11.466-1.437-16.496 1.359-4.996 4.36-9.148 8.17-12.479 4.613-4.032 10.888-6.215 15.258-7.185a3.825 3.825 0 1 1 1.659 7.468c-3.785.84-8.642 2.645-11.882 5.477-2.949 2.577-4.945 5.5-5.823 8.726-.868 3.193-.733 7.015 1.138 11.599 1.518 3.72 5.088 6.809 9.512 8.43 4.433 1.624 9.092 1.545 12.497-.243 7.614-3.996 11.799-12.985 9.499-21.751-1.282-4.888-3.155-9.043-5.283-13.569l-.516-1.095c-1.974-4.185-4.123-8.741-5.935-14.217-2.179-6.585-2.586-12.823-.987-18.489 1.609-5.695 5.148-10.462 10.242-14.23 5.571-4.12 12.433-4.927 18.557-3.556 6.095 1.364 11.838 4.963 15.289 10.21 6.679 10.158 5.188 23.867-5.161 32.755-5.178 4.448-11.691 6.336-15.721 7.144a3.824 3.824 0 1 1-1.504-7.5c3.537-.71 8.53-2.26 12.241-5.447 7.454-6.402 8.3-15.833 3.753-22.749-2.222-3.379-6.151-5.96-10.568-6.948-4.389-.982-8.878-.316-12.337 2.242-3.936 2.911-6.346 6.324-7.428 10.158z" fill="#F79824"/><path d="M115.824 153a8 8 0 1 1-16 0 8 8 0 0 1 16 0zm169-90c0 5.523-4.477 10-10 10s-10-4.477-10-10 4.477-10 10-10 10 4.477 10 10zm307-43a8 8 0 1 1-16 0 8 8 0 0 1 16 0zm89 97a6 6 0 1 1-12 0 6 6 0 0 1 12 0z" fill="#F79824"/><path fill-rule="evenodd" clip-rule="evenodd" d="M320.427 67.318c-3.387-4.936-8.197-11.947-4.372-21.892 1.444-3.755 4.612-6.598 8.873-8.546 3.908-1.787 8.479-2.69 12.697-2.829.046.163.096.36.148.595.272 1.232.438 2.616.644 4.32.139 1.16.297 2.469.518 3.98.977 6.682 3.097 16.004 11.644 21.132 3.574 2.144 7.258 2.768 10.566 1.587 3.249-1.16 5.39-3.8 6.456-6.66 2.094-5.614.532-13.355-6.152-17.513-3.697-2.3-4.961-5.386-6.062-9.576-.144-.547-.286-1.13-.435-1.74-.928-3.802-2.115-8.67-5.588-12.64-2.19-2.504-2.835-4.54-2.89-5.901-.055-1.333.432-2.29 1.085-2.904 1.233-1.159 3.743-1.615 5.909 1.17 2.434 3.13 2.613 6.426 2.828 10.38.045.839.093 1.708.163 2.611.177 2.253.574 5.31 2.649 7.685 2.225 2.546 5.553 3.455 9.498 3.455h38.83a3.824 3.824 0 1 0 0-7.648h-38.83c-2.938 0-3.604-.685-3.739-.84-.285-.326-.613-1.076-.783-3.25-.043-.54-.069-1.158-.098-1.838-.169-3.964-.427-10.038-4.482-15.25-4.834-6.216-12.552-6.4-17.183-2.047-2.279 2.142-3.633 5.25-3.489 8.788.144 3.51 1.738 7.15 4.776 10.623 2.151 2.46 2.869 5.311 3.839 9.164.17.677.349 1.385.544 2.127 1.244 4.733 3.172 10.239 9.418 14.125 3.259 2.027 3.991 5.759 3.026 8.348-.464 1.243-1.191 1.889-1.862 2.128-.612.219-1.898.355-4.06-.942-5.278-3.167-7.055-9.14-8.011-15.68-.147-1.007-.282-2.101-.417-3.2-.251-2.044-.504-4.103-.845-5.644-.273-1.237-.708-2.737-1.578-3.992-1.013-1.461-2.661-2.62-4.882-2.62-5.417 0-11.594 1.055-17.031 3.54-5.444 2.49-10.452 6.57-12.832 12.756-5.341 13.888 1.833 24.157 5.218 29.001.307.439.582.833.814 1.181a3.824 3.824 0 0 0 6.364-4.242 112.73 112.73 0 0 0-.886-1.302z" fill="#89DAFF"/><path fill-rule="evenodd" clip-rule="evenodd" d="M269.585 134.325c-3.053-16.916 6.195-31.45 18.844-37.171 6.335-2.865 12.015-3.073 15.999.6 3.548 3.27 4.392 8.54 4.392 12.954v28.533a3.824 3.824 0 1 1-7.648 0v-28.533c0-3.978-.871-6.357-1.928-7.331-.621-.573-2.436-1.619-7.663.745-9.617 4.349-16.869 15.551-14.47 28.845 1.296 7.181 4.798 12.576 9.956 16.232 5.219 3.699 12.401 5.8 21.26 5.8 16.948 0 27.089-11.464 28.995-22.032 1.061-5.875.892-10.952-.615-15.628-1.507-4.676-4.445-9.237-9.366-13.935a3.824 3.824 0 0 1 5.28-5.532c5.628 5.372 9.386 10.979 11.365 17.121 1.98 6.144 2.089 12.536.863 19.332-2.535 14.05-15.714 28.321-36.522 28.321-10.019 0-18.862-2.374-25.682-7.207-6.879-4.876-11.428-12.07-13.06-21.114z" fill="#444"/></svg>